<?xml version="1.0" encoding="UTF-8" standalone="no"?>
<!DOCTYPE svg  PUBLIC '-//W3C//DTD SVG 1.1//EN'  'http://www.w3.org/Graphics/SVG/1.1/DTD/svg11.dtd'>
<svg width="1161pt" xmlns="http://www.w3.org/2000/svg" viewBox="0 0 1161 862" version="1.1" height="862pt">
 <path d="m0 0h79.66c-10.94 10.27-21.19 21.28-32.05 31.65-5.47 5.3-3.28 13.57-3.58 20.35 0.08 113 0.04 226 0.01 339 0.32 7.3-2.12 16.32 4.11 21.84 16.82 15.83 32.53 32.81 49.25 48.75 2.95 2.81 6.14 6.15 5.97 10.55-0.53 44.27-0.16 88.57-0.27 132.86 0.02 52.33-0.03 104.67 0.02 157 0.65 13-0.24 25.99-0.02 39-0.01 20.33 0.04 40.67-0.04 61h-103.06v-207.72c4.67 5.58 10.62 9.9 15.34 15.41 2.3 2.49 2.7 5.99 2.74 9.24-0.34 29.35-0.04 58.71-0.18 88.07 0.01 5.28-0.53 10.61 0.41 15.85 0.94 4.33 4.53 7.31 7.55 10.27 7.23 6.44 13.52 13.83 20.72 20.29 3.49 3.16 7.05 6.61 8.46 11.24 1.28 3.06 2.02 7.81 6.21 7.89 5.18 0.85 9.32-5.65 6.33-9.94-4.12-2.84-9.67-3.15-13.22-6.94-6.7-6.97-13.84-13.51-20.64-20.39-3.3-3.35-7.03-6.31-9.9-10.06-2.05-2.59-2.25-6.02-2.33-9.17 0.33-29.01 0.04-58.03 0.17-87.04 0-4.99 0.43-10.01-0.15-14.97-0.41-4.22-3.71-7.22-6.45-10.1-4.82-5.06-10.17-9.57-15.06-14.54v-215.21c5.33 6.26 11.99 11.24 17.36 17.47 2.27 2.52 2.61 6.03 2.65 9.28-0.32 27.69-0.06 55.38-0.17 83.07-0.12 6.02 0.59 12.06-0.1 18.07-0.51 4.57-4.1 8.16-4.56 12.71 0.36 5.93 9.08 6.69 11.81 2.11 1.56-1.98 0.21-4.41-0.51-6.42-1.58-3.63-3.06-7.4-2.99-11.42 0.39-33.03-0.12-66.08 0.3-99.11 0.01-3.72-0.36-7.78-3.1-10.58-6.57-7.07-13.8-13.51-20.69-20.26v-338.83c5.18 6.38 11.8 11.4 17.2 17.58 2.49 2.73 3.24 6.49 3.28 10.09-0.21 50.04-0.1 100.1-0.05 150.14-0.08 5.31-3.62 9.67-4.44 14.79 0.18 5.67 8.78 7.11 11.49 2.47 2.15-2.73-0.18-5.92-1.16-8.61-2.88-5.82-1.64-12.49-1.72-18.73 0.08-47.7-0.06-95.41 0.09-143.1 0.22-5.8-4.74-9.49-8.45-13.14-5.43-5.4-11.12-10.56-16.24-16.27v-85.49z" fill="rgba(0,0,0,0)"/>
 <path d="m79.66 0h4.08c-8.87 9.69-18.24 18.92-27.66 28.08-3.65 3.53-8.31 7.22-8.23 12.82 0.03 115.02 0 230.07 0.02 345.1 0.08 5.99-0.58 12.03 0.21 17.99 0.54 4.01 3.82 6.74 6.51 9.43 14.78 13.89 28.21 29.13 43.13 42.87 4.17 3.98 9.5 8.21 9.25 14.61-0.15 130.36-0.05 260.73-0.06 391.1h-3.85c0.08-20.33 0.03-40.67 0.04-61-0.22-13.01 0.67-26 0.02-39-0.05-52.33 0-104.67-0.02-157 0.11-44.29-0.26-88.59 0.27-132.86 0.17-4.4-3.02-7.74-5.97-10.55-16.72-15.94-32.43-32.92-49.25-48.75-6.23-5.52-3.79-14.54-4.11-21.84 0.03-113 0.07-226-0.01-339 0.3-6.78-1.89-15.05 3.58-20.35 10.86-10.37 21.11-21.38 32.05-31.65z" fill="rgba(255,255,255,0.1)"/>
 <path d="m83.74 0h53.97c-13.46 12.76-26.14 26.34-39.53 39.18-3.61 3.51-8.29 7.15-8.16 12.72 0.09 79.36 0.04 158.74 0.04 238.1 0.12 6.16-0.85 12.48 0.67 18.53 2 4.87 6.55 7.97 10.09 11.66 24.39 24.27 48.65 48.68 73.03 72.96 3.37 3.52 7.81 6.45 9.55 11.18 1.38 6.46 0.35 13.12 0.52 19.67 0.08 49.7-0.14 99.4 0.12 149.1-0.01 3.18-0.85 6.45-3.13 8.79-4.48 4.85-9.53 9.15-14.08 13.94-3.57 3.46-6.69 7.39-10.55 10.56-3.37 2.76-8.05 2.96-11.53 5.51-2.77 3.28-0.59 8.99 3.54 9.87 2.43 0.61 5.7-0.06 6.59-2.71 1.75-4.19 2.19-9.15 5.74-12.38 7.66-7.38 15.13-14.95 22.79-22.32 2.57-2.41 4.39-5.66 4.3-9.26-0.13-56.39-0.09-112.81-0.01-169.21 0.21-5-3.92-8.31-7.18-11.42-22.2-21.47-43.4-43.95-65.8-65.21-5.45-5.55-10.89-11.12-16.46-16.55-2.67-2.49-4.59-5.86-4.47-9.6 0.16-64.03 0.04-128.08 0.07-192.11-0.06-18.01 0.17-36.01-0.16-54.02-0.06-4.15 0.19-8.79 3.4-11.86 14.95-15.03 30.42-29.58 44.86-45.12h39.73c-6.16 5.4-11.43 11.72-17.51 17.2-3.09 3.12-7.19 6.12-7.69 10.82-0.62 5.64-0.06 11.32-0.11 16.98-0.01 22.67 0 45.34 0 68 0.04 5.66-0.5 11.34 0.13 16.97 0.43 4.48 4.21 7.42 7.19 10.34 9.14 8.19 17.05 17.61 25.95 26.04 6.86 6.48 13.29 13.39 20.29 19.71 3.48 2.99 6.4 7.02 6.06 11.85-0.23 26.69-0.06 53.39-0.12 80.09 0.04 5.66-0.57 11.36 0.28 16.98 0.54 3.45 3.19 5.96 5.54 8.32 13.44 12.89 26.36 26.31 39.64 39.37 2.68 2.63 5.63 5.03 7.88 8.07 2.38 3.35 2.9 7.65 5.1 11.09 2.33 1.83 6.07 1.63 8.44-0.07 1.85-2.53 1.81-6.18 0.44-8.93-3.75-2.2-8.46-2.29-11.93-5.05-3.5-2.83-6.33-6.37-9.53-9.51-10.35-10.32-20.67-20.67-31.01-30.99-3.3-3.36-7.03-6.32-9.88-10.1-2.19-2.89-2.25-6.69-2.35-10.16 0.31-26.67 0.02-53.35 0.17-80.02 0-4.94 0.5-9.93-0.29-14.84-0.81-4.05-4.31-6.69-7.05-9.48-15.6-15.07-30.55-30.8-46.21-45.81-2.45-2.43-5.03-5.2-5.34-8.82-0.64-5.33-0.14-10.7-0.16-16.05 0.03-26.36 0.02-52.73-0.05-79.08-0.32-6.55 4.96-10.99 9.26-15.08 6.2-5.71 11.82-12.01 17.9-17.84h41.97c-14.8 14.07-28.74 29.04-43.56 43.11-2.51 2.51-5.45 5.16-5.84 8.9-0.67 5.3-0.15 10.66-0.17 15.99 0.02 16.69 0.06 33.39-0.13 50.08-0.18 4 1.15 8 4.19 10.7 13.58 13.09 26.72 26.64 40.15 39.88 3 2.99 6.31 5.7 8.87 9.1 2.44 3.19 2.25 7.43 2.32 11.24-0.2 10.66-0.28 21.33-0.1 32 0.12 5.59 0.61 11.46-1.88 16.66-1 2.9-3.33 6.15-1.58 9.21 2.6 5.07 11.92 2.85 11.83-2.86-0.91-3.59-3.34-6.57-4.31-10.14-0.81-3.23-0.59-6.59-0.57-9.88 0.38-11.32-0.06-22.65 0.3-33.98 0.03-5.06 0.46-10.89-3.38-14.81-12.02-13.31-25.65-25.03-38.09-37.93-4.05-4.28-8.69-7.98-12.48-12.5-2.55-2.95-2.47-7.08-2.54-10.75 0.25-15.67 0.21-31.35 0.11-47.02 0.06-5.12-0.71-10.45 0.92-15.41 2.37-4.66 6.86-7.71 10.41-11.42 13.27-13.37 26.9-26.38 39.73-40.17h16.43c0.11 14.67-0.12 29.34 0.19 44.01-0.06 3.79 0.09 8.01-2.35 11.18-4.13 5.47-10.19 9.14-14.29 14.65-2.55 3.49-2.1 8.07-2.18 12.16 0.41 14.66-0.11 29.33 0.34 43.99 0 3.41 0.1 6.97-1.27 10.17-1.11 2.91-3.05 5.54-3.56 8.66 0.48 5.27 8.61 7.19 11.46 2.79 2.09-2.63 0.3-5.89-0.73-8.54-1.58-3.47-2.59-7.21-2.48-11.05 0.24-15.34 0.29-30.68 0-46.02 0.07-3.82-0.11-8.05 2.31-11.25 3.8-5.14 9.48-8.5 13.29-13.63 2.36-3.18 2.09-7.36 2.18-11.12-0.33-15.33-0.06-30.67-0.19-46h11.33c0.13 7.33-0.46 14.68 0.04 22.01 0.12 4.05 3.04 7.12 5.77 9.78 5.47 5.21 10.77 10.59 16.24 15.79 2.64 2.58 5.44 5.5 5.78 9.37 1.06 9.29-0.75 18.67 0.34 27.95 0.41 3.7 3.31 6.32 5.78 8.8 8.37 7.94 16.14 16.49 24.59 24.36 2.54 2.44 5.27 4.75 7.3 7.65 2.1 2.98 1.95 6.8 2.04 10.27-0.12 9-0.34 18.01-0.04 27.02 0.07 4.83 0.52 10.02-2.02 14.37-1.49 3.12-4.41 6.9-1.87 10.29 2.8 4.88 11.25 2.78 11.47-2.8-0.88-5.18-5.3-9.27-5.05-14.77 0.05-13.05 0.14-26.11 0.27-39.16 0.2-4.03-1.08-8.07-4.16-10.78-9.04-8.62-17.65-17.67-26.68-26.3-3.09-3.06-6.92-6.16-7.4-10.8-1.05-8.95 0.74-17.99-0.32-26.95-0.42-3.94-3.48-6.77-6.13-9.4-5.49-5.18-10.72-10.62-16.22-15.79-2.77-2.68-5.85-5.71-5.96-9.83-0.52-7.02 0.11-14.06-0.04-21.08h46.99c0.3 17.7-0.54 35.41-0.01 53.1-0.09 6.35 5.7 10.09 9.65 14.17 21.25 21.07 42.31 42.34 63.54 63.44 3.37 3.51 7.65 6.45 9.77 10.96 1.65 5.96 0.59 12.24 0.75 18.33-0.03 65.67-0.01 131.34-0.01 197 0.07 18.01-0.17 36.03 0.17 54.03 0.03 3.77-0.11 8.03-3.08 10.79-7.39 7.3-14.45 14.93-21.99 22.08-3.78 3.57-6.98 7.73-11.05 10.99-3.49 2.76-8.35 2.71-11.9 5.26-1.68 2.86-1.23 7.37 1.84 9.13 2.23 1.16 5.14 1.33 7.36 0.02 2.36-3.36 3.02-7.58 5.26-11.01 1.42-2.16 3.31-3.95 5.17-5.72 8.11-7.56 15.59-15.74 23.7-23.29 2.91-2.88 6.39-5.89 6.81-10.24 0.7-5.99 0.08-12.03 0.16-18.04 0.04-82.33-0.05-164.66 0.05-246.99-0.29-6.05 1.97-13.48-2.99-18.23-25.7-25.33-50.99-51.09-76.71-76.4-4.06-3.63-3.92-9.39-3.81-14.39 0.33-14.99 0.05-29.99 0.18-44.99h65.41c0.26 16.28-0.55 32.57 0.45 48.83 9.07 0.12 18.13 0.05 27.2-0.14 4.41-0.13 9.26 0.36 12.4 3.86 13.65 14.02 27.62 27.73 41.4 41.63 3.6 3.73 7.68 7 10.98 11.01 2.79 3.25 2.62 7.78 2.67 11.81-0.12 7.33-0.34 14.66-0.08 22 0.09 4.99 0.53 10.25-1.59 14.93-1.03 2.87-2.93 5.64-2.74 8.78 0.69 6.65 12.47 5.42 12.38-0.94-1-4.71-4.45-8.69-4.48-13.67-0.26-12.72 0.51-25.46 0.04-38.17-0.11-5.22-4.23-8.88-7.69-12.24-8.29-7.71-15.93-16.08-24.12-23.89-6.81-6.51-13.5-13.15-19.89-20.08-2.43-2.54-4.73-5.28-7.69-7.2-2.87-1.76-6.37-1.52-9.59-1.64-8.39 0.22-16.79 0.32-25.19 0.06-0.4-14.98-0.26-29.96-0.04-44.94h60.51c7.48 6.76 14.09 14.41 21.28 21.47 4.27 4.42 10.91 3.13 16.42 3.26 19.3-0.11 38.61-0.34 57.91 0.12 0.21 45.71 0.02 91.43 0.09 137.15-0.02 11 0.09 22-0.17 33 0.1 3.74-0.22 7.92 2.13 11.11 2.84 3.76 6.59 6.7 9.88 10.05 13.34 13.33 26.65 26.68 40 40 4.1 4.18 9.33 7.77 11.25 13.57 1.3 3.27 2.31 8.4 6.91 7.98 5.26 0.38 7.76-6.78 4.74-10.49-2.27-1.63-5.1-2.06-7.67-2.99-5.56-1.59-8.88-6.66-12.82-10.48-13.32-13.34-26.63-26.7-40-39.98-3.41-3.53-7.76-6.5-9.73-11.15-1.57-6.07-0.56-12.43-0.7-18.62 0.01-54.39 0.03-108.79 0-163.18-15.59-1.01-31.22-0.18-46.82-0.45-7.7-0.19-15.41 0.46-23.09-0.03-3.2-0.09-6.04-1.76-8.26-3.96-5.59-5.32-10.48-11.36-16.37-16.38h101.21c5.67 5.15 10.84 10.82 16.25 16.23 3.73 3.72 7.32 8.83 13.15 8.9 12.06 0.45 24.15-0.38 36.21-0.04 3.92-0.1 7.27 2.18 9.82 4.95 9.93 10.41 20.23 20.47 30.49 30.55 3.2 2.87 3.96 7.26 3.82 11.37-0.3 18.01-0.11 36.03-0.17 54.04-0.1 6.31 0.6 12.66-0.27 18.93-0.54 3.72-3.36 6.45-5.88 9-12.62 12.03-24.56 24.76-37.22 36.76-2.33 2.33-4.95 4.87-5.34 8.34-0.72 5.96-0.16 11.98-0.16 17.97-0.02 7.08 1.11 14.57-2.04 21.21-1.04 2.92-3.34 6.61-0.79 9.41 3.23 3.74 10.38 2.05 11.2-2.97-0.24-2.86-2.03-5.28-3.06-7.9-2.47-5.23-1.5-11.17-1.54-16.75 0.28-6.66-0.59-13.35 0.22-19.99 0.35-3.25 2.72-5.71 4.91-7.92 13.15-12.51 25.61-25.72 38.73-38.25 3.06-2.77 5.34-6.54 5.1-10.8-0.04-20.34-0.1-40.69-0.05-61.04-0.02-5.32 0.5-10.68-0.19-15.98-0.38-3.48-3.02-6.03-5.35-8.37-8.06-7.6-15.74-15.57-23.6-23.36-3.73-3.61-6.98-7.74-11.13-10.89-3.01-2.29-6.99-2.12-10.56-2.19-8.68 0.15-17.36 0.15-26.03 0.32-2.96-0.01-5.96 0.06-8.84-0.67-2.85-0.78-5-2.95-7.06-4.95-5.28-5.29-10.19-10.97-15.81-15.91h67.73c15.46 16.19 31.56 31.76 47.31 47.66 3.86 4.12 8.92 7.43 11.31 12.7 1.57 5.74 0.62 11.77 0.74 17.64-0.07 39.67 0.03 79.33-0.04 119 0.09 5.44-0.8 11.05 0.63 16.37 2.04 4.26 6.16 6.97 9.37 10.29 13.54 13.45 26.96 27.04 40.52 40.48 3.5 3.55 7.88 6.63 9.8 11.42 1.2 2.72 1.75 5.78 3.56 8.2 3.67 3.19 10.9 0.5 10.47-4.75 0.21-2.84-1.9-5.07-4.53-5.72-3.59-1.31-7.44-2.41-10.12-5.3-13.94-14.4-28.3-28.39-42.4-42.64-3.75-3.91-8.05-7.29-11.42-11.54-2-2.44-2.19-5.73-2.28-8.74 0.42-47.05-0.08-94.11 0.28-141.15 0.05-3.51-0.89-7.14-3.55-9.58-18.45-17.89-36.29-36.42-54.7-54.34h82.38c-0.03 16.68 0.16 33.36-0.14 50.03 0.07 3.82-0.12 8.11 2.45 11.24 3.6 4.4 8.06 7.98 11.98 12.08 10 10.35 20.48 20.22 30.37 30.67 3.07 3.24 6.66 6.01 9.28 9.66 2.03 3.01 1.78 6.83 1.9 10.3-0.28 14.34-0.11 28.68-0.17 43.02-0.08 5.69 0.49 11.4-0.06 17.09-0.43 4.66-3.72 8.37-4.7 12.86 0.08 3.72 4.45 6.43 7.9 5.24 2.49-0.73 5.3-3.16 4.41-6.02-0.94-3.79-3.02-7.23-3.58-11.12-0.64-4.66-0.22-9.37-0.19-14.05 0.13-16.36-0.15-32.73 0.12-49.09-0.08-3.35 0.06-7-1.92-9.89-2.11-3.18-4.93-5.78-7.58-8.48-11.81-11.5-23.37-23.25-35.01-34.93-3.02-2.98-6.51-5.55-9-9.03-2.26-3.39-1.86-7.7-1.95-11.58 0.42-16-0.11-32 0.33-48h45.49c-0.04 16.68 0.15 33.36-0.15 50.04 0.07 3.57-0.06 7.55 2.26 10.53 2.72 3.58 6.24 6.45 9.4 9.62 13.56 13.46 26.96 27.07 40.55 40.48 4.29 4.26 10.28 8.43 9.9 15.24-0.08 28.38-0.19 56.77 0.04 85.15 0.21 5.35-3.02 9.86-4.16 14.89 0.18 4.25 5.94 7.48 9.51 4.73 1.89-1.35 3.74-3.86 2.68-6.26-1.77-4.7-4.83-9.1-4.47-14.36 0.42-27.36-0.15-54.72 0.32-82.08-0.11-3.43 0.09-7.25-2.08-10.14-2.25-3.03-5.18-5.44-7.84-8.08-16.3-16.37-32.74-32.62-49.06-48.98-3.24-3.01-3.4-7.64-3.33-11.76 0.34-16.34 0.13-32.68 0.16-49.02h18.93c0.09 8.01-0.04 16.01-0.15 24.02 0.09 3.44-0.07 7.25 2.1 10.15 2.83 3.76 6.57 6.7 9.86 10.05 16.01 16.01 32.02 32.01 48.01 48.03 3.44 3.52 7.38 6.59 10.38 10.54 2.19 2.9 2.02 6.74 2.12 10.19-0.25 14.35-0.27 28.7 0.01 43.05 0.13 3.47-0.57 6.95-2.43 9.91-1.35 2.65-3.98 5.96-1.6 8.82 2.96 4.72 11.3 2.75 11.53-2.89-0.71-3.95-3.7-7.03-4.6-10.92-0.55-2.62-0.48-5.31-0.45-7.96 0.42-13.66-0.07-27.33 0.33-40.99-0.12-3.75 0.34-7.96-1.93-11.21-2.54-3.4-5.93-6.02-8.93-8.98-16.58-16.42-32.94-33.08-49.51-49.52-4.27-4.48-10.68-8.34-10.97-15.19-0.43-9.03 0.14-18.07 0.11-27.1h21.28c0.09 8.01 0 16.01-0.14 24.02 0.09 3.2-0.09 6.68 1.64 9.52 5.14 7.52 13.87 11.96 18.46 19.89 2.06 3.74 2.05 10.82 7.84 10.42 5.93 0.61 8.8-9.54 2.95-11.38-3.69-1.68-7.85-2.55-10.97-5.28-3.26-2.76-6.11-5.94-9.24-8.83-2.93-2.85-6.46-5.88-6.64-10.29-0.57-9.34 0.17-18.72-0.06-28.07h41.17c-0.03 20.68 0.17 41.37-0.14 62.05-0.05 3.77 0.33 7.93 3.18 10.72 5.38 5.64 11.18 10.87 16.58 16.49 2.98 3.03 6.33 5.72 9.03 9.02 2.84 3.42 2.87 8.18 5.15 11.89 2.85 2.9 8.94 1.67 10.02-2.45 0.56-2.21 0.57-5.49-1.86-6.57-4.21-2.14-9.11-3.19-12.5-6.69-5.36-5.33-10.43-10.93-15.95-16.09-2.68-2.63-5.61-5.05-7.82-8.11-2.15-2.95-1.95-6.79-2.04-10.25 0.35-20 0.05-40.01 0.19-60.01h14.1c-0.01 13 0.06 26-0.02 39 0.01 5.28-0.55 10.61 0.36 15.84 1.1 4.78 5.27 7.9 8.57 11.2 7.19 6.46 13.51 13.81 20.7 20.28 2.59 2.5 5.58 5.06 6.38 8.75 1.32 6.4 0.87 13.23-1.82 19.23-1.25 2.96-2.96 6.9 0.04 9.45 3.29 3.99 10.38 0.99 10.65-3.85-0.85-4.77-4.12-8.86-4.22-13.82-0.5-5.79 1.35-12.79-3.47-17.27-9.56-9.45-19.02-19.03-28.71-28.35-2.04-2.07-4.1-4.45-4.44-7.45-0.7-4.98-0.25-10.01-0.24-15.01 0.09-12.67-0.05-25.33 0.07-38h38.21c0 18.33 0.08 36.67-0.03 55 0.06 5.13-0.74 10.44 0.74 15.44 4.06 7.77 13.75 11.3 16.79 19.75 1.12 7.66 1.79 16.2-2.27 23.17-1.08 2.24-2.78 4.92-1.22 7.37 2.22 5.2 11.25 3.71 11.67-1.91-0.42-3.55-2.33-6.69-3.23-10.11-1.99-6.83 0.68-14.17-1.58-20.92-3.61-7-11.28-10.62-15.56-17.11-2.03-3.52-1.57-7.78-1.65-11.69 0.35-19.66 0.03-39.33 0.18-58.99h36.78c-0.4 4.31 0.05 9.24-2.99 12.73-5.92 7.02-13.69 12.33-19.22 19.68-4.24 9.11 1.58 19.96-3.31 28.97-0.98 2.61-3.51 5.44-2.04 8.31 2.26 5.09 11.16 4.31 12.54-1.03 0.16-2.73-1.73-5.05-2.81-7.43-2.89-4.9-2.16-10.79-2.24-16.22 0.16-4.52-0.33-9.75 3.02-13.32 3.74-4.25 8.02-7.98 12.09-11.9 2.66-2.62 5.84-4.92 7.58-8.3 1.26-3.68 0.84-7.66 0.99-11.49h26.95c0.06 5.35 0.56 10.73-0.06 16.06-0.34 3.87-3.18 6.77-5.79 9.36-4.5 4.51-9.45 8.58-13.67 13.36-3.3 3.56-2.84 8.74-3.02 13.22 0.15 4.65-0.44 9.59 1.48 13.95 4.95 7.84 14.09 12.16 18.52 20.4 3 6.36-2.18 12.25-3.22 18.35 0.29 6.34 11.01 7.19 12.34 1 0.06-4.2-2.68-7.82-3.45-11.89-1.22-4.08-0.72-9-3.89-12.26-5.04-5.31-11.07-9.69-15.46-15.6-2.72-3.71-2.43-8.58-2.57-12.95 0.11-4.54-0.13-9.72 3.17-13.3 4.85-5.5 10.65-10.05 15.65-15.4 1.89-1.99 3.46-4.42 3.67-7.23 0.6-5.67 0.1-11.38 0-17.07h19.1c0 6.67-0.1 13.35-0.2 20.02 0.1 3.64-0.1 7.75 2.4 10.71 6 7.27 14.1 12.6 19.6 20.3 3 6.95 2.2 15.23-0.8 22.06-1 2.56-2.8 5.84-0.4 8.16 2.9 4.03 10.4 2.5 11.3-2.39-0.1-3.3-2.4-5.97-3.6-8.93-3.2-6.43 0.7-14.23-3-20.48-3.8-5.11-8.9-9.04-13.3-13.54-3.4-3.38-7.8-6.66-8.1-11.83-0.6-8.01 0.1-16.06-0.1-24.08h13.7c0.3 4.58-0.4 9.86 2.8 13.65 3.1 3.83 7 6.94 10.5 10.48 3.7 3.61 7 7.7 11 11.01 3.4 2.85 8.1 2.09 12.1 2.89 4.2 0.48 7.8 3.02 12 3.9 5.5-0.44 6.7-9.42 2-11.95-2.3-1.56-4.8 0.14-6.9 1.12-3.7 2.06-7.8 3.87-12.2 3.04-5.1-0.56-8.2-5.12-11.5-8.53-4-4.43-8.8-7.95-12.6-12.4-3.3-3.58-3.1-8.71-3.6-13.21h129.8v11.21c-1.8-3.85-6.8-7.15-10.7-4-2.4 3.65-2.5 8.4-5.2 11.94-3 3.36-7.9 3.19-12.1 3.35-6-0.11-12.1 0.28-18.1-0.2-4.9-0.35-8.9-3.49-13.7-4.15-4.8 0.39-6.5 6.92-3.7 10.34 1.2 1.48 3.2 2.8 5.2 1.98 3.8-1.34 7.1-3.95 11.2-4.33 8.4-0.76 16.8 0.68 25.2-0.05 4.3-0.19 7.3-3.71 10.9-5.69s7.4-3.53 11-5.62v847.22h-1054.1c0.02-130.37-0.08-260.74 0.07-391.1 0.25-6.4-5.08-10.63-9.25-14.61-14.92-13.74-28.35-28.98-43.13-42.87-2.69-2.69-5.97-5.42-6.51-9.43-0.79-5.96-0.13-12-0.21-17.99-0.02-115.03 0.01-230.08-0.02-345.1-0.08-5.6 4.58-9.29 8.23-12.82 9.42-9.16 18.79-18.39 27.66-28.08z" fill="rgba(0,0,0,0)"/>
 <path d="m137.71 0h4.25c-14.44 15.54-29.91 30.09-44.86 45.12-3.21 3.07-3.46 7.71-3.4 11.86 0.33 18.01 0.1 36.01 0.16 54.02-0.03 64.03 0.09 128.08-0.07 192.11-0.12 3.74 1.8 7.11 4.47 9.6 5.57 5.43 11.01 11 16.46 16.55 22.4 21.26 43.6 43.74 65.8 65.21 3.26 3.11 7.39 6.42 7.18 11.42-0.08 56.4-0.12 112.82 0.01 169.21 0.09 3.6-1.73 6.85-4.3 9.26-7.66 7.37-15.13 14.94-22.79 22.32-3.55 3.23-3.99 8.19-5.74 12.38-0.89 2.65-4.16 3.32-6.59 2.71-4.13-0.88-6.31-6.59-3.54-9.87 3.48-2.55 8.16-2.75 11.53-5.51 3.86-3.17 6.98-7.1 10.55-10.56 4.55-4.79 9.6-9.09 14.08-13.94 2.28-2.34 3.12-5.61 3.13-8.79-0.26-49.7-0.04-99.4-0.12-149.1-0.17-6.55 0.86-13.21-0.52-19.67-1.74-4.73-6.18-7.66-9.55-11.18-24.38-24.28-48.64-48.69-73.03-72.96-3.54-3.69-8.09-6.79-10.09-11.66-1.52-6.05-0.55-12.37-0.67-18.53 0-79.36 0.05-158.74-0.04-238.1-0.13-5.57 4.55-9.21 8.16-12.72 13.39-12.84 26.07-26.42 39.53-39.18z" fill="rgba(255,255,255,0.1)"/>
 <path d="m181.69 0h5.04c-6.08 5.83-11.7 12.13-17.9 17.84-4.3 4.09-9.58 8.53-9.26 15.08 0.07 26.35 0.08 52.72 0.05 79.08 0.02 5.35-0.48 10.72 0.16 16.05 0.31 3.62 2.89 6.39 5.34 8.82 15.66 15.01 30.61 30.74 46.21 45.81 2.74 2.79 6.24 5.43 7.05 9.48 0.79 4.91 0.29 9.9 0.29 14.84-0.15 26.67 0.14 53.35-0.17 80.02 0.1 3.47 0.16 7.27 2.35 10.16 2.85 3.78 6.58 6.74 9.88 10.1 10.34 10.32 20.66 20.67 31.01 30.99 3.2 3.14 6.03 6.68 9.53 9.51 3.47 2.76 8.18 2.85 11.93 5.05 1.37 2.75 1.41 6.4-0.44 8.93-2.37 1.7-6.11 1.9-8.44 0.07-2.2-3.44-2.72-7.74-5.1-11.09-2.25-3.04-5.2-5.44-7.88-8.07-13.28-13.06-26.2-26.48-39.64-39.37-2.35-2.36-5-4.87-5.54-8.32-0.85-5.62-0.24-11.32-0.28-16.98 0.06-26.7-0.11-53.4 0.12-80.09 0.34-4.83-2.58-8.86-6.06-11.85-7-6.32-13.43-13.23-20.29-19.71-8.9-8.43-16.81-17.85-25.95-26.04-2.98-2.92-6.76-5.86-7.19-10.34-0.63-5.63-0.09-11.31-0.13-16.97 0-22.66-0.01-45.33 0-68 0.05-5.66-0.51-11.34 0.11-16.98 0.5-4.7 4.6-7.7 7.69-10.82 6.08-5.48 11.35-11.8 17.51-17.2z" fill="rgba(255,255,255,0.1)"/>
 <path d="m228.7 0h4.2c-12.83 13.79-26.46 26.8-39.73 40.17-3.55 3.71-8.04 6.76-10.41 11.42-1.63 4.96-0.86 10.29-0.92 15.41 0.1 15.67 0.14 31.35-0.11 47.02 0.07 3.67-0.01 7.8 2.54 10.75 3.79 4.52 8.43 8.22 12.48 12.5 12.44 12.9 26.07 24.62 38.09 37.93 3.84 3.92 3.41 9.75 3.38 14.81-0.36 11.33 0.08 22.66-0.3 33.98-0.02 3.29-0.24 6.65 0.57 9.88 0.97 3.57 3.4 6.55 4.31 10.14 0.09 5.71-9.23 7.93-11.83 2.86-1.75-3.06 0.58-6.31 1.58-9.21 2.49-5.2 2-11.07 1.88-16.66-0.18-10.67-0.1-21.34 0.1-32-0.07-3.81 0.12-8.05-2.32-11.24-2.56-3.4-5.87-6.11-8.87-9.1-13.43-13.24-26.57-26.79-40.15-39.88-3.04-2.7-4.37-6.7-4.19-10.7 0.19-16.69 0.15-33.39 0.13-50.08 0.02-5.33-0.5-10.69 0.17-15.99 0.39-3.74 3.33-6.39 5.84-8.9 14.82-14.07 28.76-29.04 43.56-43.11z" fill="rgba(255,255,255,0.1)"/>
 <path d="m249.33 0h2.72c0.13 15.33-0.14 30.67 0.19 46-0.09 3.76 0.18 7.94-2.18 11.12-3.81 5.13-9.49 8.49-13.29 13.63-2.42 3.2-2.24 7.43-2.31 11.25 0.29 15.34 0.24 30.68 0 46.02-0.11 3.84 0.9 7.58 2.48 11.05 1.03 2.65 2.82 5.91 0.73 8.54-2.85 4.4-10.98 2.48-11.46-2.79 0.51-3.12 2.45-5.75 3.56-8.66 1.37-3.2 1.27-6.76 1.27-10.17-0.45-14.66 0.07-29.33-0.34-43.99 0.08-4.09-0.37-8.67 2.18-12.16 4.1-5.51 10.16-9.18 14.29-14.65 2.44-3.17 2.29-7.39 2.35-11.18-0.31-14.67-0.08-29.34-0.19-44.01z" fill="rgba(255,255,255,0.1)"/>
 <path d="m263.38 0h3.73c0.15 7.02-0.48 14.06 0.04 21.08 0.11 4.12 3.19 7.15 5.96 9.83 5.5 5.17 10.73 10.61 16.22 15.79 2.65 2.63 5.71 5.46 6.13 9.4 1.06 8.96-0.73 18 0.32 26.95 0.48 4.64 4.31 7.74 7.4 10.8 9.03 8.63 17.64 17.68 26.68 26.3 3.08 2.71 4.36 6.75 4.16 10.78-0.13 13.05-0.22 26.11-0.27 39.16-0.25 5.5 4.17 9.59 5.05 14.77-0.22 5.58-8.67 7.68-11.47 2.8-2.54-3.39 0.38-7.17 1.87-10.29 2.54-4.35 2.09-9.54 2.02-14.37-0.3-9.01-0.08-18.02 0.04-27.02-0.09-3.47 0.06-7.29-2.04-10.27-2.03-2.9-4.76-5.21-7.3-7.65-8.45-7.87-16.22-16.42-24.59-24.36-2.47-2.48-5.37-5.1-5.78-8.8-1.09-9.28 0.72-18.66-0.34-27.95-0.34-3.87-3.14-6.79-5.78-9.37-5.47-5.2-10.77-10.58-16.24-15.79-2.73-2.66-5.65-5.73-5.77-9.78-0.5-7.33 0.09-14.68-0.04-22.01z" fill="rgba(255,255,255,0.1)"/>
 <path d="m314.1 0h2.86c-0.13 15 0.15 30-0.18 44.99-0.11 5-0.25 10.76 3.81 14.39 25.72 25.31 51.01 51.07 76.71 76.4 4.96 4.75 2.7 12.18 2.99 18.23-0.1 82.33-0.01 164.66-0.05 246.99-0.08 6.01 0.54 12.05-0.16 18.04-0.42 4.35-3.9 7.36-6.81 10.24-8.11 7.55-15.59 15.73-23.7 23.29-1.86 1.77-3.75 3.56-5.17 5.72-2.24 3.43-2.9 7.65-5.26 11.01-2.22 1.31-5.13 1.14-7.36-0.02-3.07-1.76-3.52-6.27-1.84-9.13 3.55-2.55 8.41-2.5 11.9-5.26 4.07-3.26 7.27-7.42 11.05-10.99 7.54-7.15 14.6-14.78 21.99-22.08 2.97-2.76 3.11-7.02 3.08-10.79-0.34-18-0.1-36.02-0.17-54.03 0-65.66-0.02-131.33 0.01-197-0.16-6.09 0.9-12.37-0.75-18.33-2.12-4.51-6.4-7.45-9.77-10.96-21.23-21.1-42.29-42.37-63.54-63.44-3.95-4.08-9.74-7.82-9.65-14.17-0.53-17.69 0.31-35.4 0.01-53.1z" fill="rgba(255,255,255,0.1)"/>
 <path d="m382.37 0h4.42c-0.22 14.98-0.36 29.96 0.04 44.94 8.4 0.26 16.8 0.16 25.19-0.06 3.22 0.12 6.72-0.12 9.59 1.64 2.96 1.92 5.26 4.66 7.69 7.2 6.39 6.93 13.08 13.57 19.89 20.08 8.19 7.81 15.83 16.18 24.12 23.89 3.46 3.36 7.58 7.02 7.69 12.24 0.47 12.71-0.3 25.45-0.04 38.17 0.03 4.98 3.48 8.96 4.48 13.67 0.09 6.36-11.69 7.59-12.38 0.94-0.19-3.14 1.71-5.91 2.74-8.78 2.12-4.68 1.68-9.94 1.59-14.93-0.26-7.34-0.04-14.67 0.08-22-0.05-4.03 0.12-8.56-2.67-11.81-3.3-4.01-7.38-7.28-10.98-11.01-13.78-13.9-27.75-27.61-41.4-41.63-3.14-3.5-7.99-3.99-12.4-3.86-9.07 0.19-18.13 0.26-27.2 0.14-1-16.26-0.19-32.55-0.45-48.83z" fill="rgba(255,255,255,0.1)"/>
 <path d="m447.3 0h4.98c5.89 5.02 10.78 11.06 16.37 16.38 2.22 2.2 5.06 3.87 8.26 3.96 7.68 0.49 15.39-0.16 23.09 0.03 15.6 0.27 31.23-0.56 46.82 0.45 0.03 54.39 0.01 108.79 0 163.18 0.14 6.19-0.87 12.55 0.7 18.62 1.97 4.65 6.32 7.62 9.73 11.15 13.37 13.28 26.68 26.64 40 39.98 3.94 3.82 7.26 8.89 12.82 10.48 2.57 0.93 5.4 1.36 7.67 2.99 3.02 3.71 0.52 10.87-4.74 10.49-4.6 0.42-5.61-4.71-6.91-7.98-1.92-5.8-7.15-9.39-11.25-13.57-13.35-13.32-26.66-26.67-40-40-3.29-3.35-7.04-6.29-9.88-10.05-2.35-3.19-2.03-7.37-2.13-11.11 0.26-11 0.15-22 0.17-33-0.07-45.72 0.12-91.44-0.09-137.15-19.3-0.46-38.61-0.23-57.91-0.12-5.51-0.13-12.15 1.16-16.42-3.26-7.19-7.06-13.8-14.71-21.28-21.47z" fill="rgba(255,255,255,0.1)"/>
 <path d="m553.49 0h4.81c5.62 4.94 10.53 10.62 15.81 15.91 2.06 2 4.21 4.17 7.06 4.95 2.88 0.73 5.88 0.66 8.84 0.67 8.67-0.17 17.35-0.17 26.03-0.32 3.57 0.07 7.55-0.1 10.56 2.19 4.15 3.15 7.4 7.28 11.13 10.89 7.86 7.79 15.54 15.76 23.6 23.36 2.33 2.34 4.97 4.89 5.35 8.37 0.69 5.3 0.17 10.66 0.19 15.98-0.05 20.35 0.01 40.7 0.05 61.04 0.24 4.26-2.04 8.03-5.1 10.8-13.12 12.53-25.58 25.74-38.73 38.25-2.19 2.21-4.56 4.67-4.91 7.92-0.81 6.64 0.06 13.33-0.22 19.99 0.04 5.58-0.93 11.52 1.54 16.75 1.03 2.62 2.82 5.04 3.06 7.9-0.82 5.02-7.97 6.71-11.2 2.97-2.55-2.8-0.25-6.49 0.79-9.41 3.15-6.64 2.02-14.13 2.04-21.21 0-5.99-0.56-12.01 0.16-17.97 0.39-3.47 3.01-6.01 5.34-8.34 12.66-12 24.6-24.73 37.22-36.76 2.52-2.55 5.34-5.28 5.88-9 0.87-6.27 0.17-12.62 0.27-18.93 0.06-18.01-0.13-36.03 0.17-54.04 0.14-4.11-0.62-8.5-3.82-11.37-10.26-10.08-20.56-20.14-30.49-30.55-2.55-2.77-5.9-5.05-9.82-4.95-12.06-0.34-24.15 0.49-36.21 0.04-5.83-0.07-9.42-5.18-13.15-8.9-5.41-5.41-10.58-11.08-16.25-16.23z" fill="rgba(255,255,255,0.1)"/>
 <path d="m626.03 0h4.95c18.41 17.92 36.25 36.45 54.7 54.34 2.66 2.44 3.6 6.07 3.55 9.58-0.36 47.04 0.14 94.1-0.28 141.15 0.09 3.01 0.28 6.3 2.28 8.74 3.37 4.25 7.67 7.63 11.42 11.54 14.1 14.25 28.46 28.24 42.4 42.64 2.68 2.89 6.53 3.99 10.12 5.3 2.63 0.65 4.74 2.88 4.53 5.72 0.43 5.25-6.8 7.94-10.47 4.75-1.81-2.42-2.36-5.48-3.56-8.2-1.92-4.79-6.3-7.87-9.8-11.42-13.56-13.44-26.98-27.03-40.52-40.48-3.21-3.32-7.33-6.03-9.37-10.29-1.43-5.32-0.54-10.93-0.63-16.37 0.07-39.67-0.03-79.33 0.04-119-0.12-5.87 0.83-11.9-0.74-17.64-2.39-5.27-7.45-8.58-11.31-12.7-15.75-15.9-31.85-31.47-47.31-47.66z" fill="rgba(255,255,255,0.1)"/>
 <path d="m713.36 0h4.44c-0.44 16 0.09 32-0.33 48 0.09 3.88-0.31 8.19 1.95 11.58 2.49 3.48 5.98 6.05 9 9.03 11.64 11.68 23.2 23.43 35.01 34.93 2.65 2.7 5.47 5.3 7.58 8.48 1.98 2.89 1.84 6.54 1.92 9.89-0.27 16.36 0.01 32.73-0.12 49.09-0.03 4.68-0.45 9.39 0.19 14.05 0.56 3.89 2.64 7.33 3.58 11.12 0.89 2.86-1.92 5.29-4.41 6.02-3.45 1.19-7.82-1.52-7.9-5.24 0.98-4.49 4.27-8.2 4.7-12.86 0.55-5.69-0.02-11.4 0.06-17.09 0.06-14.34-0.11-28.68 0.17-43.02-0.12-3.47 0.13-7.29-1.9-10.3-2.62-3.65-6.21-6.42-9.28-9.66-9.89-10.45-20.37-20.32-30.37-30.67-3.92-4.1-8.38-7.68-11.98-12.08-2.57-3.13-2.38-7.42-2.45-11.24 0.3-16.67 0.11-33.35 0.14-50.03z" fill="rgba(255,255,255,0.1)"/>
 <path d="m763.29 0h3.73c-0.03 16.34 0.18 32.68-0.16 49.02-0.07 4.12 0.09 8.75 3.33 11.76 16.32 16.36 32.76 32.61 49.06 48.98 2.66 2.64 5.59 5.05 7.84 8.08 2.17 2.89 1.97 6.71 2.08 10.14-0.47 27.36 0.1 54.72-0.32 82.08-0.36 5.26 2.7 9.66 4.47 14.36 1.06 2.4-0.79 4.91-2.68 6.26-3.57 2.75-9.33-0.48-9.51-4.73 1.14-5.03 4.37-9.54 4.16-14.89-0.23-28.38-0.12-56.77-0.04-85.15 0.38-6.81-5.61-10.98-9.9-15.24-13.59-13.41-26.99-27.02-40.55-40.48-3.16-3.17-6.68-6.04-9.4-9.62-2.32-2.98-2.19-6.96-2.26-10.53 0.3-16.68 0.11-33.36 0.15-50.04z" fill="rgba(255,255,255,0.1)"/>
 <path d="m785.95 0h3.88c0.03 9.03-0.54 18.07-0.11 27.1 0.29 6.85 6.7 10.71 10.97 15.19 16.57 16.44 32.93 33.1 49.51 49.52 3 2.96 6.39 5.58 8.93 8.98 2.27 3.25 1.81 7.46 1.93 11.21-0.4 13.66 0.09 27.33-0.33 40.99-0.03 2.65-0.1 5.34 0.45 7.96 0.9 3.89 3.89 6.97 4.6 10.92-0.23 5.64-8.57 7.61-11.53 2.89-2.38-2.86 0.25-6.17 1.6-8.82 1.86-2.96 2.56-6.44 2.43-9.91-0.28-14.35-0.26-28.7-0.01-43.05-0.1-3.45 0.07-7.29-2.12-10.19-3-3.95-6.94-7.02-10.38-10.54-15.99-16.02-32-32.02-48.01-48.03-3.29-3.35-7.03-6.29-9.86-10.05-2.17-2.9-2.01-6.71-2.1-10.15 0.11-8.01 0.24-16.01 0.15-24.02z" fill="rgba(255,255,255,0.1)"/>
 <path d="m811.11 0h3.84c0.23 9.35-0.51 18.73 0.06 28.07 0.18 4.41 3.71 7.44 6.64 10.29 3.13 2.89 5.98 6.07 9.24 8.83 3.12 2.73 7.28 3.6 10.97 5.28 5.85 1.84 2.98 11.99-2.95 11.38-5.79 0.4-5.78-6.68-7.84-10.42-4.59-7.93-13.32-12.37-18.46-19.89-1.73-2.84-1.55-6.32-1.64-9.52 0.14-8.01 0.23-16.01 0.14-24.02z" fill="rgba(255,255,255,0.1)"/>
 <path d="m856.12 0h3.84c-0.14 20 0.16 40.01-0.19 60.01 0.09 3.46-0.11 7.3 2.04 10.25 2.21 3.06 5.14 5.48 7.82 8.11 5.52 5.16 10.59 10.76 15.95 16.09 3.39 3.5 8.29 4.55 12.5 6.69 2.43 1.08 2.42 4.36 1.86 6.57-1.08 4.12-7.17 5.35-10.02 2.45-2.28-3.71-2.31-8.47-5.15-11.89-2.7-3.3-6.05-5.99-9.03-9.02-5.4-5.62-11.2-10.85-16.58-16.49-2.85-2.79-3.23-6.95-3.18-10.72 0.31-20.68 0.11-41.37 0.14-62.05z" fill="rgba(255,255,255,0.1)"/>
 <path d="m874.06 0h3.85c-0.12 12.67 0.02 25.33-0.07 38-0.01 5-0.46 10.03 0.24 15.01 0.34 3 2.4 5.38 4.44 7.45 9.69 9.32 19.15 18.9 28.71 28.35 4.82 4.48 2.97 11.48 3.47 17.27 0.1 4.96 3.37 9.05 4.22 13.82-0.27 4.84-7.36 7.84-10.65 3.85-3-2.55-1.29-6.49-0.04-9.45 2.69-6 3.14-12.83 1.82-19.23-0.8-3.69-3.79-6.25-6.38-8.75-7.19-6.47-13.51-13.82-20.7-20.28-3.3-3.3-7.47-6.42-8.57-11.2-0.91-5.23-0.35-10.56-0.36-15.84 0.08-13 0.01-26 0.02-39z" fill="rgba(255,255,255,0.1)"/>
 <path d="m916.12 0h3.84c-0.15 19.66 0.17 39.33-0.18 58.99 0.08 3.91-0.38 8.17 1.65 11.69 4.28 6.49 11.95 10.11 15.56 17.11 2.26 6.75-0.41 14.09 1.58 20.92 0.9 3.42 2.81 6.56 3.23 10.11-0.42 5.62-9.45 7.11-11.67 1.91-1.56-2.45 0.14-5.13 1.22-7.37 4.06-6.97 3.39-15.51 2.27-23.17-3.04-8.45-12.73-11.98-16.79-19.75-1.48-5-0.68-10.31-0.74-15.44 0.11-18.33 0.03-36.67 0.03-55z" fill="rgba(255,255,255,0.1)"/>
 <path d="m956.74 0h3.61c-0.15 3.83 0.27 7.81-0.99 11.49-1.74 3.38-4.92 5.68-7.58 8.3-4.07 3.92-8.35 7.65-12.09 11.9-3.35 3.57-2.86 8.8-3.02 13.32 0.08 5.43-0.65 11.32 2.24 16.22 1.08 2.38 2.97 4.7 2.81 7.43-1.38 5.34-10.28 6.12-12.54 1.03-1.47-2.87 1.06-5.7 2.04-8.31 4.89-9.01-0.93-19.86 3.31-28.97 5.53-7.35 13.3-12.66 19.22-19.68 3.04-3.49 2.59-8.42 2.99-12.73z" fill="rgba(255,255,255,0.1)"/>
 <path d="m987.3 0h3.7c0.1 5.69 0.6 11.4 0 17.07-0.21 2.81-1.78 5.24-3.67 7.23-5 5.35-10.8 9.9-15.65 15.4-3.3 3.58-3.06 8.76-3.17 13.3 0.14 4.37-0.15 9.24 2.57 12.95 4.39 5.91 10.42 10.29 15.46 15.6 3.17 3.26 2.67 8.18 3.89 12.26 0.77 4.07 3.51 7.69 3.45 11.89-1.33 6.19-12.05 5.34-12.34-1 1.04-6.1 6.22-11.99 3.22-18.35-4.43-8.24-13.57-12.56-18.52-20.4-1.92-4.36-1.33-9.3-1.48-13.95 0.18-4.48-0.28-9.66 3.02-13.22 4.22-4.78 9.17-8.85 13.67-13.36 2.61-2.59 5.45-5.49 5.79-9.36 0.62-5.33 0.12-10.71 0.06-16.06z" fill="rgba(255,255,255,0.1)"/>
 <path d="m1010.1 0h3.8c0.2 8.02-0.5 16.07 0.1 24.08 0.3 5.17 4.7 8.45 8.1 11.83 4.4 4.5 9.5 8.43 13.3 13.54 3.7 6.25-0.2 14.05 3 20.48 1.2 2.96 3.5 5.63 3.6 8.93-0.9 4.89-8.4 6.42-11.3 2.39-2.4-2.32-0.6-5.6 0.4-8.16 3-6.83 3.8-15.11 0.8-22.06-5.5-7.7-13.6-13.03-19.6-20.3-2.5-2.96-2.3-7.07-2.4-10.71 0.1-6.67 0.2-13.35 0.2-20.02z" fill="rgba(255,255,255,0.1)"/>
 <path d="m1027.6 0h3.6c0.5 4.5 0.3 9.63 3.6 13.21 3.8 4.45 8.6 7.97 12.6 12.4 3.3 3.41 6.4 7.97 11.5 8.53 4.4 0.83 8.5-0.98 12.2-3.04 2.1-0.98 4.6-2.68 6.9-1.12 4.7 2.53 3.5 11.51-2 11.95-4.2-0.88-7.8-3.42-12-3.9-4-0.8-8.7-0.04-12.1-2.89-4-3.31-7.3-7.4-11-11.01-3.5-3.54-7.4-6.65-10.5-10.48-3.2-3.79-2.5-9.07-2.8-13.65z" fill="rgba(255,255,255,0.1)"/>
 <path d="m1055.4 5.32c5.8-2.68 9.8 4.39 15.5 4.05 8.7-0.04 17.5-0.04 26.2 0 5.4 0.41 9.1-6.16 14.7-4.2 3.3 0.69 3.6 4.85 3 7.59-0.5 2.95-3.8 4.76-6.6 4.15-3.8-1.51-6.7-5.27-11.1-4.95-8.7 0.06-17.5 0.06-26.2 0.01-5.5-0.62-8.9 6.57-14.5 4.68-5-1.05-5.9-9.53-1-11.33z" fill="rgba(255,255,255,0.1)"/>
 <path d="m1150.3 7.21c3.9-3.15 8.9 0.15 10.7 4v3.57c-3.6 2.09-7.4 3.64-11 5.62s-6.6 5.5-10.9 5.69c-8.4 0.73-16.8-0.71-25.2 0.05-4.1 0.38-7.4 2.99-11.2 4.33-2 0.82-4-0.5-5.2-1.98-2.8-3.42-1.1-9.95 3.7-10.34 4.8 0.66 8.8 3.8 13.7 4.15 6 0.48 12.1 0.09 18.1 0.2 4.2-0.16 9.1 0.01 12.1-3.35 2.7-3.54 2.8-8.29 5.2-11.94z" fill="rgba(255,255,255,0.1)"/>
 <path d="m1053.1 10.94c2.1-2.05 4.4-5 7.8-4.29 1.4 1.25 2.7 3.2 2.2 5.19-0.6 2.08-2.9 3.18-4.9 3.19-1.9-1.12-3.5-2.66-5.1-4.09z" fill="rgba(0,0,0,0)"/>
 <path d="m1106.4 7.17c3-1.76 8 0.82 6.6 4.64-0.5 4.84-8.4 3.51-8.2-0.83 0.1-1.3 0.1-3.37 1.6-3.81z" fill="rgba(0,0,0,0)"/>
 <path d="m1150.4 14.42c-2.3-3.17 1.6-7.34 5-5.92 2.9 0.84 2.5 4.45 3.3 6.79-2.7 0.75-6.7 2.67-8.3-0.87z" fill="rgba(0,0,0,0)"/>
 <path d="m225.49 14.44c4.89-2.3 11.09 3.48 8.44 8.42-1.06 3.15-4.72 3.28-7.41 4.06-4.36 0.82-6.85 4.88-9.92 7.67-3.06 3.32-7.75 6.25-7.58 11.33-0.06 19.71 0.14 39.43-0.08 59.14-0.33 4.1 2.03 7.53 3.93 10.92 3.17 4.55-3.51 10.76-8.04 8.18-2.53-1.31-4.41-4.19-3.9-7.1 1.49-4.01 4.95-7.42 4.48-12.01-0.27-19.02 0.05-38.05-0.22-57.08 0.1-3.04-0.2-6.47 1.8-9.02 3.72-4.91 8.99-8.36 12.81-13.17 2.54-3.46 1.24-9.33 5.69-11.34z" fill="rgba(255,255,255,0.1)"/>
 <path d="m226.38 16.19c3.26-1.48 6.94 2.34 5.69 5.58-0.98 4.25-7.8 2.74-8.8-0.92 0.36-1.88 1.44-3.68 3.11-4.66z" fill="rgba(0,0,0,0)"/>
 <path d="m1101.3 20.12c1.9-0.59 3.9 0.5 5 2.01 0.2 2.08 0.3 5.74-2.5 5.86-2.7 0.96-6-1.03-5.8-4.03-0.4-2.03 1.7-3.28 3.3-3.84z" fill="rgba(0,0,0,0)"/>
 <path d="m452.4 31.34c2.46-0.76 5.27 0.48 6.74 2.51 1.14 2.59 1.12 5.52 2.1 8.16 1.33 2.76 3.89 4.64 6.04 6.74 5.17 4.48 9.66 9.66 14.51 14.48 4.47 4.18 8.83 8.48 12.97 12.99 3.5 3.84 7.75 6.94 11.09 10.92 1.88 2.13 1.8 5.14 1.89 7.8-0.27 22.02-0.01 44.05-0.15 66.07 0.05 4.99-1.08 10.35 1.4 14.98 0.96 2.62 3.4 5.29 2.24 8.23-1.04 3.15-4.58 5.15-7.81 4.3-3.76-0.77-5.61-5.71-3.73-8.92 1.66-3.35 4.09-6.6 3.79-10.55-0.21-25.04-0.08-50.08-0.06-75.12 0.13-3.04-1.34-5.8-3.5-7.84-11.61-11.4-23.09-22.92-34.54-34.46-3.01-2.86-5.55-6.87-9.9-7.71-2.94-0.77-6.89-1.11-7.8-4.64-1.62-3.5 1.43-7.05 4.72-7.94z" fill="rgba(255,255,255,0.1)"/>
 <path d="m1072.3 32.13c2.4-1.16 5.5-0.21 6.5 2.3 2 3.37-3.3 7.73-6.1 4.98-2.6-1.59-3.3-5.62-0.4-7.28z" fill="rgba(0,0,0,0)"/>
 <path d="m300.37 33.29c3.06-1.21 7.01 0.05 8.02 3.38 1.51 3.03-0.85 5.87-2.05 8.52-2.35 4.21-1.42 9.2-1.61 13.8 0.22 4.5-0.86 9.98 2.96 13.33 13.35 12.97 26.3 26.36 39.64 39.34 2 2.05 4.2 4.34 4.35 7.38 0.49 5.31 0.04 10.64 0.11 15.96 0.06 26.35-0.11 52.7 0.11 79.04-0.1 2.74-0.03 5.78-1.81 8.06-2.26 3.04-5.17 5.5-7.84 8.17-10.74 10.25-20.8 21.19-31.59 31.39-1.88 1.87-4.03 3.75-4.69 6.43-0.83 2.41-0.94 5.19-2.55 7.25-2.82 2.62-8.55 2.07-10-1.8-0.87-2.15-0.79-4.68 0.28-6.75 3.9-2.3 8.95-2.43 12.19-5.89 11.41-11.58 22.9-23.11 34.47-34.53 2.56-2.7 5.93-4.98 7.25-8.59 0.93-4.87 0.33-9.86 0.4-14.78-0.04-22.67-0.01-45.33-0.02-68-0.05-5.01 0.38-10.03-0.1-15.02-0.12-2.83-2.24-4.89-4.09-6.78-13.07-12.59-25.61-25.72-38.67-38.32-1.62-1.71-3.56-3.48-3.88-5.95-0.88-6.63 0.4-13.33-0.23-19.97-0.42-3.54-3.48-5.94-4.66-9.19-0.54-2.77 1.26-5.75 4.01-6.48z" fill="rgba(255,255,255,0.1)"/>
 <path d="m452.37 33.15c3.02-1.47 5.82 1.91 5.72 4.76-0.38 2.06-2.15 3.57-4.08 4.15-2.06-0.54-4.21-1.98-4.56-4.23-0.02-1.94 1.31-3.7 2.92-4.68z" fill="rgba(0,0,0,0)"/>
 <path d="m552.18 38.13c0.34-6.37 11.14-6.89 12.49-0.86 1.29 5.36-5.24 8.41-4.85 13.65-0.06 7.71 0.07 15.42-0.05 23.14-0.19 3.28 0.92 6.53 3.41 8.74 14.12 13.89 28.06 27.97 42.09 41.96 8.95 9.12 18.23 17.92 26.98 27.23-7.48 7.94-15.32 15.54-23.11 23.16-2.17 2.07-4.33 4.58-4.22 7.78-0.19 6.71-0.14 13.43-0.04 20.14-0.07 4 3.35 6.68 4.72 10.17 0.85 3.97-3.16 7.97-7.13 7.12-3.01-0.71-5.75-3.28-6.09-6.43 0.91-3.57 4.31-6.1 4.65-9.89 0.65-8.01-0.54-16.07 0.18-24.08 0.08-1.77 0.89-3.38 2.12-4.63 7.44-7.61 16.31-13.94 22.74-22.48-0.74-2.3-2.45-4.1-4.08-5.81-20.84-20.18-41-41.05-61.75-61.31-1.81-1.76-3.18-4.05-3.12-6.64-0.36-9.72 0.3-19.45 0-29.16 0.3-4.71-5.73-6.99-4.94-11.8z" fill="rgba(255,255,255,0.1)"/>
 <path d="m300.44 35.29c3.39-1.55 7.64 1.71 6.41 5.46-1.01 4.71-8.07 3.25-8.69-0.88-0.09-1.76 0.67-3.71 2.28-4.58z" fill="rgba(0,0,0,0)"/>
 <path d="m557.33 35.12c2.83-0.92 5.79 1.91 5.58 4.75-0.75 2.98-4.87 5.13-7.22 2.47-2.88-1.9-1.36-6.39 1.64-7.22z" fill="rgba(0,0,0,0)"/>
 <path d="m944.54 37.58c3.64-1.32 8.77 1.09 8.43 5.41-0.59 4.24-4.04 7.57-4.25 11.94-0.15 3.2-0.79 7.09 1.67 9.64 2.7 2.96 5.87 5.46 8.49 8.51 2.92 3.15 5.62 7.19 10.2 7.92 2.94 0.98 7.72 0.99 7.97 5.08 1.11 4.21-2.46 8.79-6.93 7.84-5.75-0.42-4.28-7.69-6.92-11.21-4.77-5.83-10.88-10.42-15.87-16.05-4.22-4.54-0.22-11.59-3.66-16.47-1.1-1.82-2.47-3.5-3.27-5.49-0.81-2.98 1.37-6.1 4.14-7.12z" fill="rgba(255,255,255,0.1)"/>
 <path d="m944.35 40.1c2.26-1.17 5.97-0.67 6.49 2.28 1.18 2.89-1.57 6.33-4.66 5.55-3.61-0.4-5.05-5.95-1.83-7.83z" fill="rgba(0,0,0,0)"/>
 <path d="m107.2 50.22c0.7-3.43 4.95-3.6 7.72-3.2 3.77 0.36 5.29 4.97 4.34 8.17-0.94 2.11-2.84 3.56-4.37 5.23 0.76 8.41 0.25 16.85 0.2 25.27 0 3.76-1.03 8.27 2.15 11.11 6.56 6.76 13.96 12.71 20.23 19.77 3.19 3.57 1.65 8.77 3.21 12.96 1.09 2.64 3 4.87 3.91 7.6 0.12 3-2.68 5.25-5.27 6.17-4.87 1.92-10.33-4.82-6.92-9.05 2.79-4.12 5.57-9.56 2.63-14.36-3.84-5.07-8.97-8.98-13.26-13.64-3.36-3.81-8.24-6.66-10.11-11.54-1.01-10.21 0.23-20.53-0.29-30.77-0.2-4.95-6.04-8.48-4.17-13.72z" fill="rgba(255,255,255,0.1)"/>
 <path d="m583.44 47.44c3.4-1.5 8.56-0.3 9.26 3.85 1.07 4.33-3.62 6.96-4.69 10.76-0.74 3.88-0.42 8.43 2.61 11.32 10.65 10.68 21.41 21.26 32.04 31.97 3.22 3.11 5.99 7.19 10.52 8.46 2.89 1.18 7.21 1.35 8.05 5.05 2.21 5.11-5.1 11.04-9.57 7.53-2.62-1.6-2.53-5.04-3.39-7.64-0.47-2.48-2.14-4.42-3.89-6.12-11.93-11.39-23.27-23.39-35.18-34.8-1.42-1.54-3.16-3.02-3.69-5.11-0.71-3.79 0.02-7.71-0.84-11.47-1.13-2.66-3.23-4.79-4.28-7.49-0.44-2.43 0.8-5.2 3.05-6.31z" fill="rgba(255,255,255,0.1)"/>
 <path d="m112.34 49.12c3.29-1.4 6.36 3.56 4.13 6.21-1.92 3.13-6.8 1.94-7.7-1.41 0.18-2.1 1.43-4.23 3.57-4.8z" fill="rgba(0,0,0,0)"/>
 <path d="m584.37 49.24c2.74-1.59 6.82 0.42 6.6 3.76 0.27 3.7-4.67 5.56-7.26 3.26-2.14-1.84-1.79-5.61 0.66-7.02z" fill="rgba(0,0,0,0)"/>
 <path d="m837.36 53.12c2.67-0.71 6.36 1.68 5.69 4.69-0.22 2.7-3.1 4.68-5.69 3.96-3.44-1.4-4.01-7.6 0-8.65z" fill="rgba(0,0,0,0)"/>
 <path d="m347.41 56.38c1.79-0.44 3.93-0.44 5.46 0.75 1.59 2.15 1.95 4.91 2.93 7.36 0.9 2.99 3.11 5.27 5.27 7.41 17.9 17.45 35.4 35.29 53.14 52.9 2.64 2.66 5.57 5.08 7.83 8.1 2.1 2.9 1.75 6.69 1.87 10.08-0.08 29.33 0.11 58.67-0.1 88.01 0.11 4.51-0.89 9.96 2.85 13.36 12.22 12.11 24.41 24.25 36.52 36.47 3.01 2.92 5.63 6.83 9.99 7.77 2.74 1.04 7.12 0.94 7.72 4.62 1.62 4.55-2.84 9.41-7.45 8.26-3.58-1.1-3.83-5.31-4.85-8.3-0.56-2.64-2.3-4.76-4.2-6.58-13.21-12.44-25.54-25.77-38.66-38.3-2.08-2.2-4.85-4.24-5.41-7.39-0.64-4.61-0.2-9.27-0.23-13.9 0.03-25 0-50 0.01-75-0.03-4.67 0.37-9.36-0.11-14.02-0.19-3.1-2.85-5.09-4.83-7.16-18.37-17.61-36.37-35.61-54.32-53.65-2.99-2.99-5.71-6.72-10.02-7.84-2.71-1.1-6.52-1.33-7.66-4.54-1.7-3.33 0.79-7.55 4.25-8.41z" fill="rgba(255,255,255,0.1)"/>
 <path d="m348.41 58.28c2.88-0.76 6.14 2.43 5.28 5.34-0.71 2.8-4.53 4.69-6.96 2.79-2.87-2.23-2.41-7.65 1.68-8.13z" fill="rgba(0,0,0,0)"/>
 <path d="m930.43 63.86c2.41-0.39 4.84-0.85 7.3-0.78 3.46 2.42 1.88 8.84-2.67 8.22-3.9-0.15-3.9-4.65-4.63-7.44z" fill="rgba(0,0,0,0)"/>
 <path d="m1033.4 73.28c2.3-0.7 5.3-0.36 6.2 2.33 2.1 3.83-4.1 8.1-6.9 4.7-1.6-1.79-1.5-6.06 0.7-7.03z" fill="rgba(0,0,0,0)"/>
 <path d="m422.44 83.38c2.18-0.7 5.05-0.21 6.28 1.9 1.73 3.41 1.64 7.67 4.38 10.56 4.78 5.22 10.38 9.65 15.02 15 2.24 2.49 1.93 6.05 2.04 9.15-0.3 20.01 0.07 40.03-0.24 60.04 0.1 2.8-0.12 5.99 1.82 8.29 2.65 3.3 5.97 5.99 8.93 9.01 15.32 15.35 30.66 30.67 45.99 46.01 3.88 3.82 7.3 8.97 13.19 9.61 3.95 0.24 6.99 3.88 6.03 7.85-0.57 4.46-6.19 5.84-9.75 4.08-2.89-1.16-2.34-4.84-3.06-7.33-0.42-4.55-4.84-6.93-7.67-9.96-16.43-16.89-33.45-33.19-49.86-50.08-3.47-3.75-9.44-6.58-9.27-12.43 0.06-21.37-0.05-42.74 0.12-64.1-0.08-3.13-0.14-6.59-2.25-9.12-2.63-3.35-5.94-6.08-8.84-9.19-2.7-2.67-5.28-6.11-9.35-6.56-2.84-0.84-6.92-0.54-8.13-3.89-2.09-3.68 0.85-7.98 4.62-8.84z" fill="rgba(255,255,255,0.1)"/>
 <path d="m968.42 84.2c1.87-0.98 4.22-0.8 5.98 0.38 2.11 2.76 0.36 7.63-3.39 7.48-4.07 0.36-5.77-5.89-2.59-7.86z" fill="rgba(0,0,0,0)"/>
 <path d="m423.32 85.37c3.77-0.94 6.59 4.02 4.08 6.91-2.01 3.3-7.7 1.5-7.45-2.37-0.68-2.35 1.17-4.18 3.37-4.54z" fill="rgba(0,0,0,0)"/>
 <path d="m701.44 85.44c4.33-1.67 9.61 1.6 9.18 6.41-1.68 3.64-5.04 6.74-4.64 11.08 0.14 17.35 0.11 34.71 0.08 52.07 0.02 4.61-0.41 9.26 0.28 13.84 0.61 3.41 3.49 5.69 5.77 8.05 7.81 7.52 15.37 15.29 23.01 22.99 2.74 2.62 5.06 6.18 8.92 7.19 2.23 0.69 4.63 0.97 6.71 2.1 2.8 1.91 2.89 6.15 1.2 8.82-2.43 2.89-7.73 3.45-10.07 0.15-1.61-3.54-0.92-8.14-4.12-10.88-8.68-8.31-16.92-17.08-25.51-25.48-2.95-3.03-6.34-5.67-8.8-9.12-1.6-2.57-1.15-5.78-1.27-8.66 0.28-17.33 0.01-34.67 0.15-52 0-3.67 0.32-7.36-0.19-11.01-0.71-4.2-4.8-7.43-4.2-11.9 0.04-1.94 1.71-3.29 3.5-3.65z" fill="rgba(255,255,255,0.1)"/>
 <path d="m0 85.49c5.12 5.71 10.81 10.87 16.24 16.27 3.71 3.65 8.67 7.34 8.45 13.14-0.15 47.69-0.01 95.4-0.09 143.1 0.08 6.24-1.16 12.91 1.72 18.73 0.98 2.69 3.31 5.88 1.16 8.61-2.71 4.64-11.31 3.2-11.49-2.47 0.82-5.12 4.36-9.48 4.44-14.79-0.05-50.04-0.16-100.1 0.05-150.14-0.04-3.6-0.79-7.36-3.28-10.09-5.4-6.18-12.02-11.2-17.2-17.58v-4.78z" fill="rgba(255,255,255,0.1)"/>
 <path d="m702.44 87.28c2.92-1.19 6.35 1.5 5.7 4.66 0.11 3.54-4.61 5.29-7.04 2.95-2.48-2.07-1.71-6.53 1.34-7.61z" fill="rgba(0,0,0,0)"/>
 <path d="m258.45 95.41c3.97-1.75 9.5 1 9.22 5.68-1.07 4.05-4.2 7.47-4.09 11.85 0.03 18.02 0.19 36.05-0.06 54.07-0.02 3.4 0.03 7.24 2.69 9.77 5.91 6.09 12.07 11.94 18.1 17.9 1.45 1.55 3.12 3.19 3.39 5.41 0.92 7.63-0.4 15.32 0.24 22.96 0.16 4.36 5.93 6.89 4.6 11.5-0.96 4.65-7.78 6.09-10.88 2.74-1.3-1.36-2.41-3.18-2.24-5.12 1.38-3.46 4.74-6.13 4.7-10.09 0.12-6.39 0.14-12.78-0.04-19.16 0.1-2.93-1.63-5.39-3.66-7.32-5.9-5.78-11.83-11.54-17.66-17.38-2.6-2.32-3.02-5.9-2.94-9.19 0.21-18.7 0.04-37.41 0.17-56.12 0.32-4.11-3.08-6.87-4.68-10.28-0.87-2.7 0.39-6.17 3.14-7.22z" fill="rgba(255,255,255,0.1)"/>
 <path d="m260.34 97.07c4.67-2.28 7.03 5.64 3.35 7.87-2.66 1.15-6.03-0.23-6.85-3.07 0.12-2.11 1.56-4.01 3.5-4.8z" fill="rgba(0,0,0,0)"/>
 <path d="m985.38 100.16c1.92-0.95 4.2-0.64 6.05 0.37 1.06 2.19 1.27 5.48-1.16 6.87-2.6 1.71-6.56-0.23-6.5-3.43 0.11-1.29 0.05-3.4 1.61-3.81z" fill="rgba(0,0,0,0)"/>
 <path d="m892.49 101.31c3.25-1.48 6.91 2.19 5.58 5.46-0.51 2.46-3.29 3.91-5.59 2.93-3.56-1.21-3.55-7.19 0.01-8.39z" fill="rgba(0,0,0,0)"/>
 <path d="m935.17 113.43c3.35-0.22 6.09 3.89 4.17 6.81-1.93 3.13-7.34 1.83-8.06-1.63-0.9-2.52 1.54-4.85 3.89-5.18z" fill="rgba(0,0,0,0)"/>
 <path d="m205.4 114.12c4.51-2.24 8.13 5.02 4.32 7.88-2.15 0.33-4.85 0.28-6.22-1.7-1.86-1.99-0.28-5.19 1.9-6.18z" fill="rgba(0,0,0,0)"/>
 <path d="m911.34 115.11c1.53-0.79 3.38-0.21 4.48 1.05 3.63 2.97-1.91 9.71-5.54 6.6-2.78-1.89-2.45-6.78 1.06-7.65z" fill="rgba(0,0,0,0)"/>
 <path d="m634.31 116.29c2.6-0.5 5.4 1.95 5 4.65-0.23 2.46-2.54 4.61-5.07 3.92-4.74 0.2-4.37-8.14 0.07-8.57z" fill="rgba(0,0,0,0)"/>
 <path d="m790.41 119.52c2.91-0.52 5.82 1.6 6.98 4.18 1.13 2.2-0.51 4.39-1.37 6.35-1.51 2.73-2.64 5.73-2.5 8.91 0.28 24.7-0.08 49.4 0.22 74.1-0.11 2.39 0.07 5.13-1.65 7.05-4.18 4.83-9.38 8.67-13.45 13.6-2.53 3.08-2.17 7.43-4.13 10.79-3.14 3.89-10.05 1.93-11.15-2.79-0.49-2.4-0.06-5.66 2.46-6.76 3.65-1.73 8.08-2.05 11.04-5.07 3.5-3.49 7.12-6.89 10.41-10.59 2.1-2.21 2.17-5.4 2.22-8.27-0.23-24.36-0.09-48.73-0.06-73.09 0.06-4.46-3.54-7.74-4.46-11.92-0.38-3.22 2.54-5.8 5.44-6.49z" fill="rgba(255,255,255,0.1)"/>
 <path d="m789.28 122.01c2.74-0.82 5.99 0.99 5.95 4.05 0.69 3.6-5.06 5.84-7.11 2.83-2.23-2-0.64-5.21 1.16-6.88z" fill="rgba(0,0,0,0)"/>
 <path d="m137.2 132.46c2.53-0.16 4.61 2.19 5.12 4.52-0.4 1.88-1.65 3.61-3.46 4.34-2.88 0.16-4.54-2.76-6.62-4.27 1.55-1.59 2.84-3.72 4.96-4.59z" fill="rgba(0,0,0,0)"/>
 <path d="m232.16 139.34c1.95-0.1 3.74 1.34 4.51 3.06 1.16 1.97-0.96 3.89-2.53 4.84-3.04 1.79-7.18-2.41-5.33-5.4 0.7-1.24 1.91-2.27 3.35-2.5z" fill="rgba(0,0,0,0)"/>
 <path d="m375.41 148.41c3.85-1.13 8.45 2.33 7.56 6.49-1.23 4.07-4.36 7.57-4.15 12.03 0.17 33.36 0.02 66.71 0.09 100.07-0.03 4.65 0.34 9.32-0.17 13.95-0.28 3.54-3.11 6.01-5.42 8.39-10.37 9.96-20.28 20.4-30.67 30.35-2.01 2.09-4.45 4.24-4.78 7.3-0.54 4.32-0.18 8.68-0.19 13.01 0.06 14.69 0.02 29.38-0.06 44.06-0.25 4.54 3.26 7.9 4.5 12.01 0.71 3.6-2.59 6.86-6.13 6.64-3.22 0.21-5.89-2.64-5.94-5.78-0.78-4.76 5.23-7.14 4.95-11.84-0.02-19.72-0.08-39.46-0.08-59.18-0.27-3.78 2.19-6.8 4.83-9.17 10.71-9.94 20.54-20.8 31.18-30.82 2.56-2.25 4.51-5.31 4.23-8.85-0.07-36.71-0.12-73.43 0.02-110.15 0.36-4.4-3.25-7.41-4.78-11.17-0.64-3.26 1.88-6.56 5.01-7.34z" fill="rgba(255,255,255,0.1)"/>
 <path d="m376.3 150.32c4.11-0.86 6.48 5.91 2.96 8.05-2.25 1.7-5.97 0.83-6.76-2.02-1.47-2.77 1.3-5.35 3.8-6.03z" fill="rgba(0,0,0,0)"/>
 <path d="m116.38 156.31c5.39-1.97 9.27 4.14 14.55 4.01 11.35 0.21 22.73-0.29 34.09 0 2.82-0.04 5.44 1.25 7.33 3.3 8.76 9.24 17.83 18.18 26.9 27.12 1.76 1.86 3.8 3.81 4.18 6.47 0.59 4.24 0.22 8.53 0.23 12.79-0.12 30.01 0.12 60.02-0.13 90.03 0.05 2.85 0.09 6.05 2.22 8.24 3.59 4.06 7.84 7.48 11.46 11.52 2.49 2.41 4.68 5.76 8.36 6.36 2.94 0.83 7.13 0.5 8.38 3.98 2.58 5.02-3.54 10.7-8.52 8.45-3.65-0.87-3.48-5.14-4.34-8.02-0.56-3.41-3.46-5.61-5.74-7.91-4.36-4.31-8.9-8.44-13.08-12.92-2.61-2.53-2.47-6.37-2.49-9.72 0.43-33.31-0.32-66.63 0.42-99.92 0.09-4.08-3.36-6.76-6.08-9.25-5.4-4.6-9.67-10.33-15.05-14.95-3.59-3.06-6.45-6.83-9.87-10.05-2.43-2.35-6.11-1.75-9.19-1.93-9.7 0.31-19.4-0.01-29.1 0.07-4.63-0.26-7.78 3.75-11.98 4.83-6.37 0.25-8.21-10.31-2.55-12.5z" fill="rgba(255,255,255,0.1)"/>
 <path d="m476.46 157.31c2.35-1.63 6.86-0.34 7.13 2.86-0.01 3.01-3.21 6.02-6.25 4.7-2.95-1.3-3.41-5.6-0.88-7.56z" fill="rgba(0,0,0,0)"/>
 <path d="m115.59 166.35c0.03-2.93-1.04-7.3 2.56-8.6 4.2-1.41 7.85 4.88 4.21 7.55-2.19 0.71-4.51 0.79-6.77 1.05z" fill="rgba(0,0,0,0)"/>
 <path d="m857.4 167.22c2.75-1.29 6.75 0.43 6.57 3.8 0.22 3.6-4.61 5.68-7.27 3.41-2.52-1.68-2.11-6.06 0.7-7.21z" fill="rgba(0,0,0,0)"/>
 <path d="m505.18 177.5c4.27-0.31 4.91 5.08 3.3 8.03-2.29 1.12-5.39 1.14-6.86-1.27-2.31-2.69 0.63-6.34 3.56-6.76z" fill="rgba(0,0,0,0)"/>
 <path d="m332.17 179.47c2.86-0.06 5.82 3.04 4.34 5.89-0.84 3.13-5.43 4.07-7.31 1.36-2.28-2.54-0.75-7.42 2.97-7.25z" fill="rgba(0,0,0,0)"/>
 <path d="m656.38 182.4c4.31-1.97 9.5 1.84 9.23 6.42-1.53 3.71-4.99 6.76-4.66 11.09 0.19 15.05 0 30.12 0.08 45.17-0.19 4.54 3.76 7.38 6.55 10.34 2.89 2.74 5.46 6.32 9.58 7.21 3.04 0.95 7.18 1.37 8.14 5.05 1.91 5.32-4.96 9.97-9.64 7.59-3.27-1.07-2.67-5.08-3.41-7.74-0.37-3.78-3.6-6.19-6.09-8.67-2.93-2.98-6.49-5.6-8.32-9.45-1.14-4.36-0.5-8.95-0.57-13.41 0.04-12.02 0.05-24.05 0.1-36.07 0.16-4.22-3.25-7.21-4.47-11-0.27-2.55 0.67-5.83 3.48-6.53z" fill="rgba(255,255,255,0.1)"/>
 <path d="m657.44 184.25c4.47-2.19 8.15 5.02 4.29 7.73-2.06 0.57-4.29 0.34-6.2-0.58-1.6-2.38-0.87-6.04 1.91-7.15z" fill="rgba(0,0,0,0)"/>
 <path d="m112.31 187.61c4.02-0.81 7.89 3.24 7.01 7.21-1.26 3.74-4.33 6.96-3.88 11.16 0.31 11.34 0.15 22.68 0.19 34.02-0.08 9.59 0.25 19.19-0.31 28.78 0.11 1.62-0.47 3.7 1.02 4.87 6.11 1.24 13.69-1.7 18.52 3.44 8.91 9.11 18.07 17.97 26.98 27.08 10.96 11.69 22.61 22.71 33.86 34.13 3.16 3 5.8 7.48 10.56 7.92 3.16 0.38 7.37 0.97 7.55 5.03 1.69 5.31-4.43 9.28-9.01 7.01-3.67-0.88-3.24-5.26-4.19-8.1-0.51-3.5-3.64-5.56-6.04-7.78-5.66-4.66-9.95-10.7-15.5-15.48-5.38-4.63-9.66-10.34-15-15.01-5.88-5.12-10.61-11.4-16.57-16.44-6.06-5.23-10.42-12.37-17.3-16.62-5.8-2.52-12.38-0.1-18.35-1.63-0.93-3.95-0.5-8.16-0.5-12.21 0.08-19.35-0.04-38.7 0.1-58.05 0.17-4.52-3.1-8-4.39-12.11-0.77-3.34 2.16-6.47 5.25-7.22z" fill="rgba(255,255,255,0.1)"/>
 <path d="m112.29 190.27c2.17-0.27 5.25 1.22 4.94 3.76 1.08 3.99-5.18 6.47-7.35 3.05-2.26-2.34-0.75-6.36 2.41-6.81z" fill="rgba(0,0,0,0)"/>
 <path d="m155.5 191.53c3.15-1.1 7.57 0.08 8.37 3.7 1.19 3.57-1.68 6.53-3.08 9.54-1.45 2.48-1.25 5.46-1.29 8.23 0.18 7.99 0.21 15.99 0.01 23.99 0.01 3.37-0.26 7 1.56 10.01 1.29 2.77 3.75 5.51 2.89 8.78-0.54 2.76-3.29 4.63-5.97 4.83-3.14-0.43-6.31-3.24-6.03-6.62 0.92-4.18 4.56-7.44 4.48-11.92 0.12-9.02-0.28-18.04 0.04-27.06-0.06-3.45 0.43-7.15-1.22-10.32-1.06-2.25-2.58-4.3-3.24-6.72-0.1-2.5 1.03-5.43 3.48-6.44z" fill="rgba(255,255,255,0.1)"/>
 <path d="m768.37 192.13c3.04-1.8 7.05 1.13 6.3 4.57-0.21 3.67-5.3 4.6-7.52 2.12-2.07-1.9-0.83-5.32 1.22-6.69z" fill="rgba(0,0,0,0)"/>
 <path d="m157.32 193.36c1.76-0.35 3.43 0.78 4.66 1.92 0.56 2.08 0.47 5.45-2.19 5.91-2.46 0.74-6.28-0.03-5.93-3.28-0.72-2.42 1.31-4.09 3.46-4.55z" fill="rgba(0,0,0,0)"/>
 <path d="m599.15 211.38c1.98-2.29 6.38-1.94 8.2 0.4 1.83 3.38-2.73 5.71-4.5 8.01-2.25-2.22-4.78-4.95-3.7-8.41z" fill="rgba(0,0,0,0)"/>
 <path d="m744.46 210.28c2.25-1.23 5.31-0.19 6.44 2.1 1.32 3.1-2.32 7.08-5.49 5.54-3.26-0.55-3.98-6.6-0.95-7.64z" fill="rgba(0,0,0,0)"/>
 <path d="m66.39 219.47c3.25-0.68 6.33 1.95 7.27 4.93 1.15 2.88-1.27 5.38-2.39 7.84-2.72 4.43-1.52 9.84-1.68 14.76 0.02 20.66 0.13 41.33-0.05 62 0.02 4.56-0.73 9.99 3.08 13.38 20.27 20.06 40.33 40.34 60.56 60.44 2.72 2.84 6.08 5.25 7.94 8.79 1.14 4.01 0.56 8.27 0.62 12.39-0.13 27 0.06 54-0.09 81 0.09 4.61-0.86 9.64 1.63 13.82 1.53 2.95 3.89 6.28 2.27 9.71-3.17 4.63-12.17 2.47-12.25-3.39 1.07-4.22 5.14-7.39 4.76-12.06-0.2-28.03-0.06-56.05-0.1-84.08-0.1-5.23 0.6-10.54-0.39-15.72-1.16-3.15-4.02-5.23-6.28-7.57-12.81-12.51-25.3-25.36-38.07-37.91-7.47-6.87-14.1-14.58-21.54-21.48-2.85-2.84-6.65-5.76-6.35-10.25 0.12-25.7-0.07-51.41 0.14-77.11 0.33-4.76-2.78-8.63-4.02-12.99 0.22-2.81 2.15-5.71 4.94-6.5z" fill="rgba(255,255,255,0.1)"/>
 <path d="m826.34 220.42c2.97-0.52 5.66 2.57 5.59 5.42-0.6 3.44-5.6 4.31-7.86 2.04-1.98-2.42-0.64-6.47 2.27-7.46z" fill="rgba(0,0,0,0)"/>
 <path d="m63.99 221.9c2.6 0.53 6.35-0.32 7.83 2.5 1.71 3.46-2.61 7.99-6.09 5.97-2.69-1.89-1.49-5.7-1.74-8.47z" fill="rgba(0,0,0,0)"/>
 <path d="m281.92 229.02c2.75 0.35 6.56-0.95 8.43 1.74 2.15 3.45-2.55 7.78-5.95 6.09-2.88-1.45-1.94-5.23-2.48-7.83z" fill="rgba(0,0,0,0)"/>
 <path d="m518.38 229.37c2.45-0.78 5.6-0.16 7.12 2.04 1.4 3.39 0.79 7.66 3.62 10.39 4.63 4.72 9.45 9.26 14.11 13.96 2.75 2.84 6.14 5.31 7.84 8.97 1.16 4.65 0.49 9.52 0.68 14.27-0.19 3.48 0.49 7.34-1.36 10.48-4.82 6.71-12.33 11.08-16.86 18-1.51 5.69-0.72 11.74-0.8 17.58-0.24 4.22 3.04 7.29 4.37 11.03 0.31 1.95-0.09 4.12-1.31 5.71-3.89 3.32-11.11 0.55-11.46-4.64 1.09-2.95 3.3-5.35 4.31-8.34 1.51-7.65-1.16-15.7 1.14-23.23 4.6-6.81 11.94-11.26 16.86-17.83 1.34-1.96 1.17-4.46 1.33-6.71 0.02-4.66 0.24-9.34-0.31-13.98-0.44-3.19-3.2-5.26-5.27-7.45-5.57-5.13-10.64-10.79-16.26-15.86-2.88-2.65-7.26-1.61-10.5-3.42-3.1-3.21-1.65-9.69 2.75-10.97z" fill="rgba(255,255,255,0.1)"/>
 <path d="m518.35 232.15c1.39-0.56 2.95-0.5 4.41-0.2 2.9 2.12 1.65 7.49-1.88 8.07-3.91 0.2-7.29-6.16-2.53-7.87z" fill="rgba(0,0,0,0)"/>
 <path d="m767.41 236.21c2.82-1.52 7.4 1.19 6.48 4.6-0.59 4.37-8.05 4.35-8.83 0.05-0.01-1.78 0.75-3.71 2.35-4.65z" fill="rgba(0,0,0,0)"/>
 <path d="m235.43 239.37c4.24-2.2 7.46 4.57 4.13 7.28-3.05 3.48-10.4-2.28-6.51-5.52 0.65-0.78 1.44-1.37 2.38-1.76z" fill="rgba(0,0,0,0)"/>
 <path d="m615.36 239.28c4.15-2.1 7.43 4.53 4.04 7.14-2.8 3.77-9.1-1.01-6.85-4.76 0.51-1.17 1.55-2.08 2.81-2.38z" fill="rgba(0,0,0,0)"/>
 <path d="m156.39 250.11c2.55-1.01 6.4 0.71 5.87 3.85 0 2.89-3.19 4.93-5.83 3.81-3.33-1.04-3.8-6.88-0.04-7.66z" fill="rgba(0,0,0,0)"/>
 <path d="m518.38 255.26c3.76-1.93 7.73 4.03 4.41 6.58-1.82 2.54-5.62 2.05-6.89-0.75-1.86-2.13-0.02-5.34 2.48-5.83z" fill="rgba(0,0,0,0)"/>
 <path d="m474.39 258.34c2.47-0.64 5.43 0.08 6.93 2.27 1.61 3.52 1.04 8.05 4.26 10.76 6.92 6.77 13.8 13.58 20.67 20.4 2.28 2.08 2.96 5.18 2.88 8.17-0.15 21.04-0.04 42.1-0.14 63.14-0.23 5.2 6.06 8.35 4.86 13.68-0.32 3.53-4.26 5.53-7.48 4.75-3.44-0.72-5.42-5.03-3.98-8.15 1.6-3.67 4.33-7.08 4.01-11.31-0.17-16.02-0.08-32.03-0.1-48.05-0.06-5 0.41-10.03-0.16-15.02-0.27-2.82-2.41-4.9-4.26-6.84-6.02-5.99-12.44-11.59-18.12-17.92-2.95-3.76-8.24-2.84-12.09-4.9-3.03-3.12-2.4-10.44 2.72-10.98z" fill="rgba(255,255,255,0.1)"/>
 <path d="m9.46 260.4c4.2-1.91 10.05 1.64 9.4 6.46-1.3 3.52-5.13 5.98-4.89 10.06-0.07 11.35 0.21 22.72-0.08 34.07 0.13 3.44-0.47 7.41 1.91 10.26 4.39 5.24 10 9.32 14.34 14.61 2.36 2.81 1.74 6.74 1.87 10.14-0.3 24.68 0.05 49.37-0.2 74.04-0.21 3.82 0.95 7.68 3.87 10.26 11.92 11.76 23.78 23.58 35.5 35.53 2.8 3.03 7.19 3 10.81 4.39 2.67 0.82 2.34 4.45 2.1 6.68-0.4 4.72-6.85 5.33-9.96 2.95-1.45-1.92-1.61-4.48-2.41-6.69-1.08-4.6-5.3-7.28-8.4-10.48-10.09-9.91-19.87-20.14-30.07-29.93-2.13-2.22-4.71-4.52-4.99-7.78-0.47-3.97-0.2-7.98-0.19-11.97 0.13-22.34-0.12-44.68 0.15-67.02-0.1-2.84 0.08-6.04-1.93-8.31-4.36-5.26-10.08-9.24-14.32-14.6-2.25-2.84-1.76-6.69-1.88-10.07 0.25-10.33-0.03-20.66 0.23-30.99-0.02-3.08 0.22-6.37-1.31-9.16-0.99-2.27-2.69-4.3-3.04-6.79 0.21-2.27 1.43-4.58 3.49-5.66z" fill="rgba(255,255,255,0.1)"/>
 <path d="m471.89 264.15c1.07-1.88 2.64-3.4 4.02-5.04 2.45 1.78 5.41 4.2 4.01 7.64-2.25 3.64-8.03 1.3-8.03-2.6z" fill="rgba(0,0,0,0)"/>
 <path d="m10.42 262.2c3.51-1.85 8.59 3.58 5.45 6.65-1.46 1.55-3.99 2.72-5.93 1.3-3.15-1.61-2.58-6.59 0.48-7.95z" fill="rgba(0,0,0,0)"/>
 <path d="m298.3 266.32c3.91-0.61 5.47 4.28 4.6 7.37-2.43 2.78-8.47 1.29-8.66-2.68 0.15-2.21 1.93-4.17 4.06-4.69z" fill="rgba(0,0,0,0)"/>
 <path d="m676.36 266.14c1.92-1.06 4.28-0.62 6.15 0.35 1.51 2.83 0.27 7.65-3.5 7.5-4.06-0.09-6.66-5.49-2.65-7.85z" fill="rgba(0,0,0,0)"/>
 <path d="m609.86 266.45c2.44 0.81 6.48 0.53 7.15 3.71 0.87 3.41-3.14 7.11-6.31 5.23-3.15-2.05-1.16-6.03-0.84-8.94z" fill="rgba(0,0,0,0)"/>
 <path d="m423.39 270.38c2.14-0.39 4.58 0.67 5.55 2.67 1.22 2.74 1.36 5.83 2.62 8.55 1.14 2.05 2.95 3.61 4.6 5.24 5.51 5.14 10.63 10.71 16.15 15.85 2.59 2.49 5.69 5.27 5.42 9.24 0.08 10.02-0.08 20.04-0.05 30.07 0.11 5.49-1.02 11.47 1.89 16.47 1.03 2.45 3.28 5.12 1.8 7.85-2.02 5.1-10.61 4.62-12.12-0.56-0.95-3.44 1.81-6.19 3.31-8.98 2.07-3.2 1.42-7.19 1.5-10.79-0.34-11.02 0.12-22.05-0.09-33.07 0.2-4.27-3.33-7.11-6.08-9.81-5.14-4.86-10.11-9.9-14.97-15.03-1.96-2.08-4.2-4.06-7.07-4.67-3.02-1.05-7.21-1.32-8.39-4.87-1.26-3.83 2.16-7.76 5.93-8.16z" fill="rgba(255,255,255,0.1)"/>
 <path d="m424.18 272.43c2.7-0.02 4.25 3.01 4.09 5.41-0.96 2.41-4.2 4.73-6.55 2.64-3.24-2.42-2.1-8.44 2.46-8.05z" fill="rgba(0,0,0,0)"/>
 <path d="m749.5 275.67c2.21-0.62 4.5-0.89 6.78-1.22 0.48 1.74 1.22 3.45 1.25 5.28-1.14 2.25-4.25 4.13-6.61 2.49-2.46-1.22-2.56-4.38-1.42-6.55z" fill="rgba(0,0,0,0)"/>
 <path d="m20.38 278.1c2.31-1.08 6.03-0.07 5.81 3 1.09 3.8-4.83 7.11-6.99 3.64-1.84-2.07-1.43-5.43 1.18-6.64z" fill="rgba(0,0,0,0)"/>
 <path d="m239.41 286.41c2.24-0.63 5.06-0.35 6.67 1.49 1.84 3.67 1.62 8.31 4.6 11.4 16.26 16.07 32.22 32.44 48.57 48.42 2.1 2.19 4.75 4.31 5.34 7.46 1.02 6.58-0.32 13.26 0.33 19.87 0.36 4.2 4.69 7.33 3.86 11.7-0.85 6.17-11.26 5.57-12.33-0.19-0.81-3.05 1.89-5.36 3.16-7.83 2.15-3.15 1.43-7.15 1.6-10.74-0.16-4.16 0.38-8.47-0.81-12.51-2.05-3.75-5.64-6.29-8.55-9.33-14.83-14.85-29.75-29.63-44.47-44.59-2.77-3-7.15-2.69-10.61-4.32-3.32-3.02-2.12-9.92 2.64-10.83z" fill="rgba(255,255,255,0.1)"/>
 <path d="m239.39 288.2c3.22-1.36 7.44 1.92 6.32 5.39-1.33 3.23-5.53 3.3-8.26 1.97-0.63-2.5-0.87-6.09 1.94-7.36z" fill="rgba(0,0,0,0)"/>
 <path d="m473.38 291.11c3.19-1.64 7.14 2.32 5.5 5.51-1.05 2.65-4.89 3.51-6.84 1.33-2.23-1.95-1.32-5.78 1.34-6.84z" fill="rgba(0,0,0,0)"/>
 <path d="m134.27 297.49c2.69-0.1 6.03 1.36 6.55 4.26 0.82 3.1 0.77 6.73 3.32 9.06 25.84 25.5 51.32 51.39 77.15 76.92 2.32 2.08 2.92 5.23 2.84 8.22-0.21 37.71 0 75.43-0.14 113.13-0.39 5.27 7.05 8.78 4.21 14.12-2.29 5.34-11.3 4.49-12.03-1.42 0.01-4.89 4.58-8.66 4.2-13.73-0.13-37.37-0.08-74.75-0.02-112.12 0.05-2.75-1.03-5.38-2.99-7.29-23.41-23.26-46.72-46.62-70.04-69.98-3.3-3.07-6.02-7.71-10.94-8.13-2.7-0.47-6.13-0.64-7.28-3.65-2.35-3.87 0.67-9.28 5.17-9.39z" fill="rgba(255,255,255,0.1)"/>
 <path d="m133.45 299.36c4.76-2.24 7.81 5.58 3.8 8.04-2.27 1.91-5.29-0.04-6.57-2.16-1.5-2.23 0.65-5.02 2.77-5.88z" fill="rgba(0,0,0,0)"/>
 <path d="m226.52 328.37c2.54-0.93 4.78 1.7 5.76 3.77 0.24 2.61-2.28 5.77-5.06 4.83-1.84-0.99-3.35-2.47-4.93-3.82 1.34-1.65 2.58-3.41 4.23-4.78z" fill="rgba(0,0,0,0)"/>
 <path d="m529.37 333.15c3.63-1.45 7.71 2.85 5.19 6.21-1.41 3.71-7.12 1.92-7.58-1.52-0.19-1.8-0.12-4.86 2.39-4.69z" fill="rgba(0,0,0,0)"/>
 <path d="m203.56 352.98c-0.37-2.83 2.45-5.22 5.16-4.83 2.01 0.58 3.35 2.66 3.25 4.72-1.07 1.93-2.58 3.55-3.99 5.24-1.56-1.57-4.51-2.53-4.42-5.13z" fill="rgba(0,0,0,0)"/>
 <path d="m276.38 353.11c2.89-1.47 6.57 1.63 5.78 4.72-0.54 2.81-4.15 4.3-6.49 2.63-2.73-1.67-2.27-6.22 0.71-7.35z" fill="rgba(0,0,0,0)"/>
 <path d="m454.38 359.28c3.47-1.2 6.29 3.45 4.52 6.33-1.19 2.62-5.86 3.49-7.01 0.42-1.68-2.39-0.38-6.07 2.49-6.75z" fill="rgba(0,0,0,0)"/>
 <path d="m506.39 371.08c2.54-1.13 5.91 1.07 5.77 3.88 0.13 3.09-3.97 5.59-6.46 3.49-2.81-1.76-2.98-6.56 0.69-7.37z" fill="rgba(0,0,0,0)"/>
 <path d="m300.38 381.18c2.92-1.43 7.45 0.81 6.32 4.43-0.33 2.89-3.63 4.69-6.1 2.94-2.92-1.3-3.51-6.13-0.22-7.37z" fill="rgba(0,0,0,0)"/>
 <path d="m334.43 392.2c3.44-1.45 6.84 2.26 5.9 5.66-1.82 2.78-5.76 3.01-8.11 0.78-0.79-2.31-0.39-5.5 2.21-6.44z" fill="rgba(0,0,0,0)"/>
 <path d="m240.48 413.41c3.94-2.03 8.68 1.5 9.11 5.57-1.44 4.06-5.08 7.35-4.8 11.96 0.2 37.37-0.06 74.75 0.16 112.13-0.03 2.67-0.27 5.6-2.27 7.6-6.28 6.71-13.26 12.75-19.5 19.49-2.51 2.63-2.05 6.5-2.13 9.83 0.34 10.34-0.71 20.67-0.43 31.01 0.21 6.68-0.41 13.38 0.08 20.05 0.42 4.55 5.29 7.94 4.11 12.74-1.14 6.72-13 4.92-12.59-1.74 1.17-4.09 4.32-7.55 4.22-11.99 0.19-11.7-0.67-23.44 0.58-35.11 0.8-6.98 0-13.99 0.36-20.97-0.02-2.8 1.92-4.96 3.77-6.82 5.56-5.44 11.12-10.9 16.67-16.35 2.18-1.98 3.43-4.77 3.3-7.74-0.09-37.71-0.06-75.43-0.02-113.14 0.11-4.3-3.94-7.01-4.91-10.93 0.1-2.52 2.13-4.55 4.29-5.59z" fill="rgba(255,255,255,0.1)"/>
 <path d="m239.69 422.15c-3.72-3.09 1.96-9.87 5.6-6.55 2.58 1.8 1.11 5.23 1.08 7.79-2.21-0.4-4.71-0.07-6.68-1.24z" fill="rgba(0,0,0,0)"/>
 <path d="m0 429.1c6.89 6.75 14.12 13.19 20.69 20.26 2.74 2.8 3.11 6.86 3.1 10.58-0.42 33.03 0.09 66.08-0.3 99.11-0.07 4.02 1.41 7.79 2.99 11.42 0.72 2.01 2.07 4.44 0.51 6.42-2.73 4.58-11.45 3.82-11.81-2.11 0.46-4.55 4.05-8.14 4.56-12.71 0.69-6.01-0.02-12.05 0.1-18.07 0.11-27.69-0.15-55.38 0.17-83.07-0.04-3.25-0.38-6.76-2.65-9.28-5.37-6.23-12.03-11.21-17.36-17.47v-5.08z" fill="rgba(255,255,255,0.1)"/>
 <path d="m353.45 460.2c2.86-1.81 6.9 1 6.05 4.33-0.28 4.19-6.61 4.49-8.22 1.04-1.22-2.05 0.32-4.39 2.17-5.37z" fill="rgba(0,0,0,0)"/>
 <path d="m76.39 471.16c2.27-0.97 5.36-0.09 6.09 2.46 1.24 3.13-2.07 6.67-5.29 5.54-3.8-0.69-4.32-6.57-0.8-8z" fill="rgba(0,0,0,0)"/>
 <path d="m45.41 478.44c2.16-0.44 4.8-0.03 6.25 1.76 1.71 3.73 1.43 8.48 4.72 11.37 2.46 2.79 6.13 4.9 7.16 8.68 0.81 4.87 0.28 9.83 0.33 14.75-0.02 28 0.01 56-0.01 84 0.03 4.68-0.35 9.37 0.11 14.04 0.2 3.62 3.31 5.95 5.58 8.4 3.22 3 6.04 7.03 10.61 7.95 2.39 0.83 5.95 0.9 6.53 3.99 1.72 4.24-1.37 10.1-6.38 9.1-3.5-0.17-4.67-3.62-5.19-6.51-1.3-8.75-11.49-11.64-14.58-19.38-0.94-4.13-0.49-8.4-0.51-12.59 0.19-33.6-0.2-67.21 0.21-100.81 0.1-2.24-1.39-4.04-2.8-5.6-2.41-2.62-5.04-5.38-8.64-6.24-2.54-1.05-5.99-1.02-7.54-3.65-2.29-3.39 0.58-8.21 4.15-9.26z" fill="rgba(255,255,255,0.1)"/>
 <path d="m45.38 480.22c3.38-0.88 7.96 3.17 5.41 6.46-1.5 3.11-6.01 3.11-7.81 0.31-1.92-2.36 0.42-5.34 2.4-6.77z" fill="rgba(0,0,0,0)"/>
 <path d="m135.73 504.97c-0.4-2.81 2.65-4.12 4.32-5.77 1.77 2.27 5.89 4.88 3.36 8.08-1.92 3.47-7.68 1.26-7.68-2.31z" fill="rgba(0,0,0,0)"/>
 <path d="m221.36 516.26c3.15-1.21 6.45 2.29 5.43 5.38-1.07 2.74-4.92 3.41-7.15 1.69-1.71-2.17-1.55-6.55 1.72-7.07z" fill="rgba(0,0,0,0)"/>
 <path d="m151.49 558.44c5.12-2.37 9.92 3.46 8.35 8.31-0.7 3.1-4.39 3.32-6.84 4.3-6.4 1.39-9.81 7.47-14.38 11.54-3.54 3.87-8.87 6.87-9.89 12.42-1.39 7.91-1.07 15.99-1.07 24 0.02 7.01-1.09 13.97-1.01 21 0.07 10.99 0.04 21.99 0.09 32.99 0.06 7.69-1.33 15.31-1.12 23 0.13 5.66 0.98 11.29 0.95 16.97 0.16 3.29-0.31 6.94 1.73 9.79 1.58 2.73 4.58 5.76 2.64 9.11-1.49 4.74-8.5 5.49-10.94 1.17-3.2-5.25 3.34-9.66 3.01-14.96 0.06-25.04-0.24-50.09 0.06-75.12 1.49-12.37 0.24-24.84 1.48-37.22 0.47-4.81-0.13-9.71 0.91-14.45 1.65-3.7 5.14-6.1 7.87-8.97 3.95-4.06 8.26-7.78 12.05-12 3.09-3.42 1.41-9.78 6.11-11.88z" fill="rgba(255,255,255,0.1)"/>
 <path d="m149.07 564.86c-0.14-2.64 2.66-4.33 4.95-4.74 2.73 0.4 5.14 3.74 3.64 6.33-1.34 1.45-3.11 2.41-4.68 3.59-1.38-1.67-2.86-3.28-3.91-5.18z" fill="rgba(0,0,0,0)"/>
 <path d="m20.3 569.36c3.03-0.67 5.87 2.48 4.81 5.45-0.57 3.3-5.82 4.52-7.32 1.29-1.66-2.34-0.42-6.23 2.51-6.74z" fill="rgba(0,0,0,0)"/>
 <path d="m14.42 599.46c2.72-0.63 6.07-0.06 7.77 2.35 1.19 2.62 1.03 5.6 1.97 8.3 1.81 3.53 6.18 5.24 7.43 9.13 1.12 6.52-0.46 13.17 0.54 19.71 0.74 3.35 3.61 5.62 5.77 8.11 5.35 5.99 11.74 10.93 17 17.01 2.79 3.21 6.14 5.89 9 9.04 2.26 2.35 1.76 5.88 1.91 8.87-0.29 17.34 0.09 34.68-0.24 52.02-0.02 3.01-0.03 6.22 1.64 8.87 1.31 2.76 3.91 5.6 2.68 8.87-1.13 3.5-5.66 5.03-8.8 3.26-2.49-1.17-4.65-4.54-3.1-7.18 1.6-3.13 4.16-6.02 4.03-9.74 0-16.69-0.18-33.39 0.01-50.08-0.04-3.82 0.44-7.78-0.7-11.48-1.34-2.78-3.82-4.75-6.02-6.83-7.43-6.55-13.95-14.05-21.18-20.81-2.08-2.17-4.84-4.07-5.71-7.08-1.27-7.12 0.71-14.44-0.75-21.54-1.9-5.65-7.74-8.25-13.19-9.21-5.58-0.94-5.65-10.52-0.06-11.59z" fill="rgba(255,255,255,0.1)"/>
 <path d="m14.39 601.17c2.23-0.42 5.11 0.13 6.04 2.49 1.38 2.92-1.34 6.19-4.33 6.34-1.87-0.65-3.45-2.19-4-4.11-0.01-1.83 0.98-3.52 2.29-4.72z" fill="rgba(0,0,0,0)"/>
 <path d="m147.38 612.16c1.93-1.04 4.23-0.52 6.15 0.27 1.08 2.84 0.68 6.75-2.89 7.37-4.38 1.45-7.84-5.66-3.26-7.64z" fill="rgba(0,0,0,0)"/>
 <path d="m80.29 631.34c1.97-0.44 3.8 1.39 4.9 2.86 0.97 3.11-1.33 7.12-4.89 6.42-4.42-1.04-4.43-8.19-0.01-9.28z" fill="rgba(0,0,0,0)"/>
 <path d="m216.29 638.02c2.62-0.77 6.16 0.08 6.84 3.09 0 3.65-4.35 6.37-7.54 4.36-0.85-2.32-1.76-5.8 0.7-7.45z" fill="rgba(0,0,0,0)"/>
 <path d="m0 649.39c4.89 4.97 10.24 9.48 15.06 14.54 2.74 2.88 6.04 5.88 6.45 10.1 0.58 4.96 0.15 9.98 0.15 14.97-0.13 29.01 0.16 58.03-0.17 87.04 0.08 3.15 0.28 6.58 2.33 9.17 2.87 3.75 6.6 6.71 9.9 10.06 6.8 6.88 13.94 13.42 20.64 20.39 3.55 3.79 9.1 4.1 13.22 6.94 2.99 4.29-1.15 10.79-6.33 9.94-4.19-0.08-4.93-4.83-6.21-7.89-1.41-4.63-4.97-8.08-8.46-11.24-7.2-6.46-13.49-13.85-20.72-20.29-3.02-2.96-6.61-5.94-7.55-10.27-0.94-5.24-0.4-10.57-0.41-15.85 0.14-29.36-0.16-58.72 0.18-88.07-0.04-3.25-0.44-6.75-2.74-9.24-4.72-5.51-10.67-9.83-15.34-15.41v-4.89z" fill="rgba(255,255,255,0.1)"/>
 <path d="m123.43 725.21c3.31-1.46 7.03 2.24 5.77 5.58-0.71 3.11-5.26 3.35-7.14 1.17-2.07-1.94-1.34-5.81 1.37-6.75z" fill="rgba(0,0,0,0)"/>
 <path d="m63.36 745.17c3.17-1.16 6.33 3.55 4.15 6.22-1.48 3.59-7.82 2.49-7.77-1.46-0.48-2.37 1.48-4.27 3.62-4.76z" fill="rgba(0,0,0,0)"/>
 <path d="m35.35 772.36c2.42-0.63 5.43-0.81 7.45 0.91 1.97 3.9 1.03 9.15 4.81 12.11 8.4 7.59 15.95 16.04 24.07 23.93 3.9 4.1 8.28 7.76 11.97 12.06 2.8 3.22 1.54 7.81 2.17 11.68 0.21 4.59 5.16 7.95 4.07 12.71-0.95 4.39-7.24 5.57-10.23 2.56-1.22-1.18-2.22-2.7-2.45-4.39 1.19-3.71 3.89-6.89 4.28-10.86 0.44-4.3 0.24-9.25-3.14-12.39-9.7-9.64-19.45-19.24-29.03-29-2.89-2.86-5.54-6.68-9.91-7.18-2.52-0.78-6.48-0.47-7.21-3.72-0.76-2.98-0.35-7.44 3.15-8.42z" fill="rgba(255,255,255,0.1)"/>
 <path d="m36.39 774.15c2.6-1.19 5.91 0.96 5.79 3.85 0.14 3.18-3.95 5.52-6.52 3.48-2.81-1.67-2.33-6.24 0.73-7.33z" fill="rgba(0,0,0,0)"/>
 <path d="m60.4 822.16c3-1.73 7.21 2.32 5.49 5.42-0.57 3.62-5.54 3.02-7.54 0.98-2.26-2.02 0.04-5.21 2.05-6.4z" fill="rgba(0,0,0,0)"/>
 <path d="m81.39 840.16c1.91-0.98 4.2-0.63 6.01 0.41 0.98 1.96 1.3 4.73-0.48 6.38-2.19 2.17-6.51 1.01-7.04-2.13-0.27-1.56-0.19-4.01 1.51-4.66z" fill="rgba(0,0,0,0)"/>
</svg>
